<?xml version="1.0" encoding="UTF-8" standalone="no"?>
<!DOCTYPE svg PUBLIC "-//W3C//DTD SVG 1.1//EN"
 "http://www.w3.org/Graphics/SVG/1.1/DTD/svg11.dtd">
<!-- Generated by graphviz version 2.38.0 (20140413.2041)
 -->
<!-- Title: Framework/src/CcdbDatabase.cxx Pages: 1 -->
<svg width="1404pt" height="308pt"
 viewBox="0.00 0.00 1404.00 308.00" xmlns="http://www.w3.org/2000/svg" xmlns:xlink="http://www.w3.org/1999/xlink">
<g id="graph0" class="graph" transform="scale(1 1) rotate(0) translate(4 304)">
<title>Framework/src/CcdbDatabase.cxx</title>
<!-- Node1 -->
<g id="node1" class="node"><title>Node1</title>
<polygon fill="#bfbfbf" stroke="black" points="681,-280.5 681,-299.5 850,-299.5 850,-280.5 681,-280.5"/>
<text text-anchor="middle" x="765.5" y="-287.5" font-family="Helvetica,sans-Serif" font-size="10.00">Framework/src/CcdbDatabase.cxx</text>
</g>
<!-- Node2 -->
<g id="node2" class="node"><title>Node2</title>
<g id="a_node2"><a xlink:href="CcdbDatabase_8h.html" target="_top" xlink:title="QualityControl/CcdbDatabase.h">
<polygon fill="none" stroke="black" points="186,-224.5 186,-243.5 341,-243.5 341,-224.5 186,-224.5"/>
<text text-anchor="middle" x="263.5" y="-231.5" font-family="Helvetica,sans-Serif" font-size="10.00">QualityControl/CcdbDatabase.h</text>
</a>
</g>
</g>
<!-- Node1&#45;&gt;Node2 -->
<g id="edge1" class="edge"><title>Node1&#45;&gt;Node2</title>
<path fill="none" stroke="midnightblue" d="M686.234,-280.473C595.064,-270.666 445.822,-254.612 351.23,-244.437"/>
<polygon fill="midnightblue" stroke="midnightblue" points="351.43,-240.938 341.113,-243.349 350.681,-247.898 351.43,-240.938"/>
</g>
<!-- Node5 -->
<g id="node5" class="node"><title>Node5</title>
<g id="a_node5"><a xlink:href="MonitorObject_8h.html" target="_top" xlink:title="QualityControl/MonitorObject.h">
<polygon fill="none" stroke="black" points="172,-112.5 172,-131.5 323,-131.5 323,-112.5 172,-112.5"/>
<text text-anchor="middle" x="247.5" y="-119.5" font-family="Helvetica,sans-Serif" font-size="10.00">QualityControl/MonitorObject.h</text>
</a>
</g>
</g>
<!-- Node1&#45;&gt;Node5 -->
<g id="edge15" class="edge"><title>Node1&#45;&gt;Node5</title>
<path fill="none" stroke="midnightblue" d="M680.703,-286.253C586.393,-281.901 441.043,-270.94 393.5,-244 356.296,-222.919 367.37,-195.351 334.5,-168 318.067,-154.326 296.792,-143.23 279.394,-135.477"/>
<polygon fill="midnightblue" stroke="midnightblue" points="280.753,-132.251 270.183,-131.519 277.989,-138.683 280.753,-132.251"/>
</g>
<!-- Node9 -->
<g id="node9" class="node"><title>Node9</title>
<polygon fill="none" stroke="#bfbfbf" points="373.5,-56.5 373.5,-75.5 489.5,-75.5 489.5,-56.5 373.5,-56.5"/>
<text text-anchor="middle" x="431.5" y="-63.5" font-family="Helvetica,sans-Serif" font-size="10.00">Common/Exceptions.h</text>
</g>
<!-- Node1&#45;&gt;Node9 -->
<g id="edge16" class="edge"><title>Node1&#45;&gt;Node9</title>
<path fill="none" stroke="midnightblue" d="M680.802,-283.509C585.895,-276.476 443.053,-262.896 426.5,-244 387.214,-199.155 410.321,-120.674 423.834,-85.2575"/>
<polygon fill="midnightblue" stroke="midnightblue" points="427.179,-86.3184 427.64,-75.7336 420.679,-83.7208 427.179,-86.3184"/>
</g>
<!-- Node15 -->
<g id="node15" class="node"><title>Node15</title>
<polygon fill="none" stroke="#bfbfbf" points="435.5,-224.5 435.5,-243.5 519.5,-243.5 519.5,-224.5 435.5,-224.5"/>
<text text-anchor="middle" x="477.5" y="-231.5" font-family="Helvetica,sans-Serif" font-size="10.00">TBufferJSON.h</text>
</g>
<!-- Node1&#45;&gt;Node15 -->
<g id="edge17" class="edge"><title>Node1&#45;&gt;Node15</title>
<path fill="none" stroke="midnightblue" d="M719.866,-280.444C668.16,-270.749 584.045,-254.977 529.751,-244.797"/>
<polygon fill="midnightblue" stroke="midnightblue" points="530.115,-241.304 519.641,-242.902 528.825,-248.185 530.115,-241.304"/>
</g>
<!-- Node16 -->
<g id="node16" class="node"><title>Node16</title>
<polygon fill="none" stroke="#bfbfbf" points="537.5,-224.5 537.5,-243.5 587.5,-243.5 587.5,-224.5 537.5,-224.5"/>
<text text-anchor="middle" x="562.5" y="-231.5" font-family="Helvetica,sans-Serif" font-size="10.00">TH1F.h</text>
</g>
<!-- Node1&#45;&gt;Node16 -->
<g id="edge18" class="edge"><title>Node1&#45;&gt;Node16</title>
<path fill="none" stroke="midnightblue" d="M733.334,-280.444C696.286,-270.588 635.63,-254.453 597.446,-244.296"/>
<polygon fill="midnightblue" stroke="midnightblue" points="598.345,-240.913 587.781,-241.725 596.545,-247.678 598.345,-240.913"/>
</g>
<!-- Node17 -->
<g id="node17" class="node"><title>Node17</title>
<polygon fill="none" stroke="#bfbfbf" points="606,-224.5 606,-243.5 653,-243.5 653,-224.5 606,-224.5"/>
<text text-anchor="middle" x="629.5" y="-231.5" font-family="Helvetica,sans-Serif" font-size="10.00">TFile.h</text>
</g>
<!-- Node1&#45;&gt;Node17 -->
<g id="edge19" class="edge"><title>Node1&#45;&gt;Node17</title>
<path fill="none" stroke="midnightblue" d="M743.95,-280.444C721.469,-271.517 686.012,-257.439 660.52,-247.317"/>
<polygon fill="midnightblue" stroke="midnightblue" points="661.535,-243.954 650.949,-243.516 658.951,-250.46 661.535,-243.954"/>
</g>
<!-- Node18 -->
<g id="node18" class="node"><title>Node18</title>
<polygon fill="none" stroke="#bfbfbf" points="671,-224.5 671,-243.5 718,-243.5 718,-224.5 671,-224.5"/>
<text text-anchor="middle" x="694.5" y="-231.5" font-family="Helvetica,sans-Serif" font-size="10.00">TList.h</text>
</g>
<!-- Node1&#45;&gt;Node18 -->
<g id="edge20" class="edge"><title>Node1&#45;&gt;Node18</title>
<path fill="none" stroke="midnightblue" d="M754.093,-280.324C743.391,-272.185 727.159,-259.839 714.337,-250.087"/>
<polygon fill="midnightblue" stroke="midnightblue" points="716.193,-247.102 706.115,-243.834 711.956,-252.673 716.193,-247.102"/>
</g>
<!-- Node19 -->
<g id="node19" class="node"><title>Node19</title>
<polygon fill="none" stroke="#bfbfbf" points="736,-224.5 736,-243.5 795,-243.5 795,-224.5 736,-224.5"/>
<text text-anchor="middle" x="765.5" y="-231.5" font-family="Helvetica,sans-Serif" font-size="10.00">TROOT.h</text>
</g>
<!-- Node1&#45;&gt;Node19 -->
<g id="edge21" class="edge"><title>Node1&#45;&gt;Node19</title>
<path fill="none" stroke="midnightblue" d="M765.5,-280.083C765.5,-273.006 765.5,-262.861 765.5,-253.986"/>
<polygon fill="midnightblue" stroke="midnightblue" points="769,-253.751 765.5,-243.751 762,-253.751 769,-253.751"/>
</g>
<!-- Node20 -->
<g id="node20" class="node"><title>Node20</title>
<polygon fill="none" stroke="#bfbfbf" points="813.5,-224.5 813.5,-243.5 861.5,-243.5 861.5,-224.5 813.5,-224.5"/>
<text text-anchor="middle" x="837.5" y="-231.5" font-family="Helvetica,sans-Serif" font-size="10.00">TKey.h</text>
</g>
<!-- Node1&#45;&gt;Node20 -->
<g id="edge22" class="edge"><title>Node1&#45;&gt;Node20</title>
<path fill="none" stroke="midnightblue" d="M777.068,-280.324C787.92,-272.185 804.381,-259.839 817.383,-250.087"/>
<polygon fill="midnightblue" stroke="midnightblue" points="819.821,-252.634 825.721,-243.834 815.621,-247.034 819.821,-252.634"/>
</g>
<!-- Node21 -->
<g id="node21" class="node"><title>Node21</title>
<polygon fill="none" stroke="#bfbfbf" points="880,-224.5 880,-243.5 967,-243.5 967,-224.5 880,-224.5"/>
<text text-anchor="middle" x="923.5" y="-231.5" font-family="Helvetica,sans-Serif" font-size="10.00">TStreamerInfo.h</text>
</g>
<!-- Node1&#45;&gt;Node21 -->
<g id="edge23" class="edge"><title>Node1&#45;&gt;Node21</title>
<path fill="none" stroke="midnightblue" d="M790.536,-280.444C817.116,-271.359 859.309,-256.939 889.023,-246.783"/>
<polygon fill="midnightblue" stroke="midnightblue" points="890.251,-250.062 898.582,-243.516 887.987,-243.439 890.251,-250.062"/>
</g>
<!-- Node22 -->
<g id="node22" class="node"><title>Node22</title>
<polygon fill="none" stroke="#bfbfbf" points="985,-224.5 985,-243.5 1114,-243.5 1114,-224.5 985,-224.5"/>
<text text-anchor="middle" x="1049.5" y="-231.5" font-family="Helvetica,sans-Serif" font-size="10.00">boost/algorithm/string.hpp</text>
</g>
<!-- Node1&#45;&gt;Node22 -->
<g id="edge24" class="edge"><title>Node1&#45;&gt;Node22</title>
<path fill="none" stroke="midnightblue" d="M810.501,-280.444C860.459,-270.944 941.101,-255.611 994.699,-245.42"/>
<polygon fill="midnightblue" stroke="midnightblue" points="995.54,-248.823 1004.71,-243.516 994.232,-241.946 995.54,-248.823"/>
</g>
<!-- Node23 -->
<g id="node23" class="node"><title>Node23</title>
<polygon fill="none" stroke="#bfbfbf" points="1132.5,-224.5 1132.5,-243.5 1178.5,-243.5 1178.5,-224.5 1132.5,-224.5"/>
<text text-anchor="middle" x="1155.5" y="-231.5" font-family="Helvetica,sans-Serif" font-size="10.00">chrono</text>
</g>
<!-- Node1&#45;&gt;Node23 -->
<g id="edge25" class="edge"><title>Node1&#45;&gt;Node23</title>
<path fill="none" stroke="midnightblue" d="M850.346,-281.93C920.902,-275.224 1024.04,-263.51 1122.37,-243.971"/>
<polygon fill="midnightblue" stroke="midnightblue" points="1123.07,-247.401 1132.18,-241.993 1121.68,-240.539 1123.07,-247.401"/>
</g>
<!-- Node24 -->
<g id="node24" class="node"><title>Node24</title>
<polygon fill="none" stroke="#bfbfbf" points="1196.5,-224.5 1196.5,-243.5 1248.5,-243.5 1248.5,-224.5 1196.5,-224.5"/>
<text text-anchor="middle" x="1222.5" y="-231.5" font-family="Helvetica,sans-Serif" font-size="10.00">sstream</text>
</g>
<!-- Node1&#45;&gt;Node24 -->
<g id="edge26" class="edge"><title>Node1&#45;&gt;Node24</title>
<path fill="none" stroke="midnightblue" d="M850.084,-283.615C933.397,-277.483 1064.37,-265.631 1186.33,-243.976"/>
<polygon fill="midnightblue" stroke="midnightblue" points="1187,-247.413 1196.22,-242.196 1185.76,-240.524 1187,-247.413"/>
</g>
<!-- Node25 -->
<g id="node25" class="node"><title>Node25</title>
<polygon fill="none" stroke="#bfbfbf" points="1266.5,-224.5 1266.5,-243.5 1306.5,-243.5 1306.5,-224.5 1266.5,-224.5"/>
<text text-anchor="middle" x="1286.5" y="-231.5" font-family="Helvetica,sans-Serif" font-size="10.00">utility</text>
</g>
<!-- Node1&#45;&gt;Node25 -->
<g id="edge27" class="edge"><title>Node1&#45;&gt;Node25</title>
<path fill="none" stroke="midnightblue" d="M850.279,-286.637C946.726,-282.737 1108.89,-272.504 1256.23,-243.848"/>
<polygon fill="midnightblue" stroke="midnightblue" points="1257.23,-247.218 1266.36,-241.843 1255.87,-240.351 1257.23,-247.218"/>
</g>
<!-- Node26 -->
<g id="node26" class="node"><title>Node26</title>
<polygon fill="none" stroke="#bfbfbf" points="1325,-224.5 1325,-243.5 1396,-243.5 1396,-224.5 1325,-224.5"/>
<text text-anchor="middle" x="1360.5" y="-231.5" font-family="Helvetica,sans-Serif" font-size="10.00">FairLogger.h</text>
</g>
<!-- Node1&#45;&gt;Node26 -->
<g id="edge28" class="edge"><title>Node1&#45;&gt;Node26</title>
<path fill="none" stroke="midnightblue" d="M850.165,-285.12C956.393,-279.568 1144.28,-267.487 1314.79,-243.933"/>
<polygon fill="midnightblue" stroke="midnightblue" points="1315.28,-247.398 1324.7,-242.548 1314.31,-240.466 1315.28,-247.398"/>
</g>
<!-- Node3 -->
<g id="node3" class="node"><title>Node3</title>
<polygon fill="none" stroke="#bfbfbf" points="231,-168.5 231,-187.5 326,-187.5 326,-168.5 231,-168.5"/>
<text text-anchor="middle" x="278.5" y="-175.5" font-family="Helvetica,sans-Serif" font-size="10.00">CCDB/CcdbApi.h</text>
</g>
<!-- Node2&#45;&gt;Node3 -->
<g id="edge2" class="edge"><title>Node2&#45;&gt;Node3</title>
<path fill="none" stroke="midnightblue" d="M265.977,-224.083C267.986,-216.849 270.886,-206.409 273.39,-197.397"/>
<polygon fill="midnightblue" stroke="midnightblue" points="276.765,-198.323 276.069,-187.751 270.02,-196.449 276.765,-198.323"/>
</g>
<!-- Node4 -->
<g id="node4" class="node"><title>Node4</title>
<g id="a_node4"><a xlink:href="DatabaseInterface_8h.html" target="_top" xlink:title="QualityControl/DatabaseInterface.h">
<polygon fill="none" stroke="black" points="42.5,-168.5 42.5,-187.5 212.5,-187.5 212.5,-168.5 42.5,-168.5"/>
<text text-anchor="middle" x="127.5" y="-175.5" font-family="Helvetica,sans-Serif" font-size="10.00">QualityControl/DatabaseInterface.h</text>
</a>
</g>
</g>
<!-- Node2&#45;&gt;Node4 -->
<g id="edge3" class="edge"><title>Node2&#45;&gt;Node4</title>
<path fill="none" stroke="midnightblue" d="M241.95,-224.444C219.469,-215.517 184.012,-201.439 158.52,-191.317"/>
<polygon fill="midnightblue" stroke="midnightblue" points="159.535,-187.954 148.949,-187.516 156.951,-194.46 159.535,-187.954"/>
</g>
<!-- Node4&#45;&gt;Node5 -->
<g id="edge4" class="edge"><title>Node4&#45;&gt;Node5</title>
<path fill="none" stroke="midnightblue" d="M146.514,-168.444C166.088,-159.636 196.808,-145.812 219.229,-135.722"/>
<polygon fill="midnightblue" stroke="midnightblue" points="220.892,-138.812 228.575,-131.516 218.019,-132.428 220.892,-138.812"/>
</g>
<!-- Node13 -->
<g id="node13" class="node"><title>Node13</title>
<polygon fill="none" stroke="#bfbfbf" points="101.5,-112.5 101.5,-131.5 153.5,-131.5 153.5,-112.5 101.5,-112.5"/>
<text text-anchor="middle" x="127.5" y="-119.5" font-family="Helvetica,sans-Serif" font-size="10.00">memory</text>
</g>
<!-- Node4&#45;&gt;Node13 -->
<g id="edge13" class="edge"><title>Node4&#45;&gt;Node13</title>
<path fill="none" stroke="midnightblue" d="M127.5,-168.083C127.5,-161.006 127.5,-150.861 127.5,-141.986"/>
<polygon fill="midnightblue" stroke="midnightblue" points="131,-141.751 127.5,-131.751 124,-141.751 131,-141.751"/>
</g>
<!-- Node14 -->
<g id="node14" class="node"><title>Node14</title>
<polygon fill="none" stroke="#bfbfbf" points="0,-112.5 0,-131.5 83,-131.5 83,-112.5 0,-112.5"/>
<text text-anchor="middle" x="41.5" y="-119.5" font-family="Helvetica,sans-Serif" font-size="10.00">unordered_map</text>
</g>
<!-- Node4&#45;&gt;Node14 -->
<g id="edge14" class="edge"><title>Node4&#45;&gt;Node14</title>
<path fill="none" stroke="midnightblue" d="M113.683,-168.324C100.267,-159.9 79.6759,-146.971 63.9144,-137.074"/>
<polygon fill="midnightblue" stroke="midnightblue" points="65.6132,-134.008 55.2831,-131.655 61.8908,-139.936 65.6132,-134.008"/>
</g>
<!-- Node6 -->
<g id="node6" class="node"><title>Node6</title>
<polygon fill="none" stroke="#bfbfbf" points="301.5,-56.5 301.5,-75.5 355.5,-75.5 355.5,-56.5 301.5,-56.5"/>
<text text-anchor="middle" x="328.5" y="-63.5" font-family="Helvetica,sans-Serif" font-size="10.00">iostream</text>
</g>
<!-- Node5&#45;&gt;Node6 -->
<g id="edge5" class="edge"><title>Node5&#45;&gt;Node6</title>
<path fill="none" stroke="midnightblue" d="M260.514,-112.324C273.032,-103.979 292.182,-91.2122 306.971,-81.3524"/>
<polygon fill="midnightblue" stroke="midnightblue" points="309.139,-84.1137 315.518,-75.6545 305.256,-78.2894 309.139,-84.1137"/>
</g>
<!-- Node7 -->
<g id="node7" class="node"><title>Node7</title>
<polygon fill="none" stroke="#bfbfbf" points="70,-56.5 70,-75.5 105,-75.5 105,-56.5 70,-56.5"/>
<text text-anchor="middle" x="87.5" y="-63.5" font-family="Helvetica,sans-Serif" font-size="10.00">map</text>
</g>
<!-- Node5&#45;&gt;Node7 -->
<g id="edge6" class="edge"><title>Node5&#45;&gt;Node7</title>
<path fill="none" stroke="midnightblue" d="M222.148,-112.444C192.983,-102.601 145.258,-86.4932 115.156,-76.3338"/>
<polygon fill="midnightblue" stroke="midnightblue" points="115.897,-72.89 105.303,-73.0084 113.658,-79.5225 115.897,-72.89"/>
</g>
<!-- Node8 -->
<g id="node8" class="node"><title>Node8</title>
<polygon fill="none" stroke="#bfbfbf" points="114,-0.5 114,-19.5 173,-19.5 173,-0.5 114,-0.5"/>
<text text-anchor="middle" x="143.5" y="-7.5" font-family="Helvetica,sans-Serif" font-size="10.00">TObject.h</text>
</g>
<!-- Node5&#45;&gt;Node8 -->
<g id="edge7" class="edge"><title>Node5&#45;&gt;Node8</title>
<path fill="none" stroke="midnightblue" d="M209.888,-112.471C189.698,-105.908 166.211,-94.6868 152.5,-76 142.812,-62.7963 141.166,-43.926 141.586,-29.9161"/>
<polygon fill="midnightblue" stroke="midnightblue" points="145.106,-29.7365 142.293,-19.522 138.122,-29.2615 145.106,-29.7365"/>
</g>
<!-- Node5&#45;&gt;Node9 -->
<g id="edge8" class="edge"><title>Node5&#45;&gt;Node9</title>
<path fill="none" stroke="midnightblue" d="M276.655,-112.444C308.013,-103.241 358.031,-88.5617 392.697,-78.3879"/>
<polygon fill="midnightblue" stroke="midnightblue" points="393.871,-81.6909 402.481,-75.5164 391.9,-74.9742 393.871,-81.6909"/>
</g>
<!-- Node10 -->
<g id="node10" class="node"><title>Node10</title>
<g id="a_node10"><a xlink:href="Quality_8h.html" target="_top" xlink:title="QualityControl/Quality.h">
<polygon fill="none" stroke="black" points="162,-56.5 162,-75.5 283,-75.5 283,-56.5 162,-56.5"/>
<text text-anchor="middle" x="222.5" y="-63.5" font-family="Helvetica,sans-Serif" font-size="10.00">QualityControl/Quality.h</text>
</a>
</g>
</g>
<!-- Node5&#45;&gt;Node10 -->
<g id="edge9" class="edge"><title>Node5&#45;&gt;Node10</title>
<path fill="none" stroke="midnightblue" d="M243.372,-112.083C239.986,-104.77 235.084,-94.1814 230.881,-85.1034"/>
<polygon fill="midnightblue" stroke="midnightblue" points="233.929,-83.3553 226.551,-75.7511 227.577,-86.2962 233.929,-83.3553"/>
</g>
<!-- Node10&#45;&gt;Node8 -->
<g id="edge10" class="edge"><title>Node10&#45;&gt;Node8</title>
<path fill="none" stroke="midnightblue" d="M209.807,-56.324C197.599,-47.979 178.922,-35.2122 164.497,-25.3524"/>
<polygon fill="midnightblue" stroke="midnightblue" points="166.392,-22.4082 156.161,-19.6545 162.442,-28.1871 166.392,-22.4082"/>
</g>
<!-- Node11 -->
<g id="node11" class="node"><title>Node11</title>
<polygon fill="none" stroke="#bfbfbf" points="255.5,-0.5 255.5,-19.5 307.5,-19.5 307.5,-0.5 255.5,-0.5"/>
<text text-anchor="middle" x="281.5" y="-7.5" font-family="Helvetica,sans-Serif" font-size="10.00">ostream</text>
</g>
<!-- Node10&#45;&gt;Node11 -->
<g id="edge11" class="edge"><title>Node10&#45;&gt;Node11</title>
<path fill="none" stroke="midnightblue" d="M231.979,-56.324C240.701,-48.3414 253.843,-36.3128 264.398,-26.6529"/>
<polygon fill="midnightblue" stroke="midnightblue" points="266.834,-29.1674 271.848,-19.8339 262.108,-24.0036 266.834,-29.1674"/>
</g>
<!-- Node12 -->
<g id="node12" class="node"><title>Node12</title>
<polygon fill="none" stroke="#bfbfbf" points="196,-0.5 196,-19.5 237,-19.5 237,-0.5 196,-0.5"/>
<text text-anchor="middle" x="216.5" y="-7.5" font-family="Helvetica,sans-Serif" font-size="10.00">string</text>
</g>
<!-- Node10&#45;&gt;Node12 -->
<g id="edge12" class="edge"><title>Node10&#45;&gt;Node12</title>
<path fill="none" stroke="midnightblue" d="M221.509,-56.083C220.714,-48.9272 219.571,-38.6353 218.577,-29.6911"/>
<polygon fill="midnightblue" stroke="midnightblue" points="222.055,-29.3034 217.472,-19.7511 215.098,-30.0765 222.055,-29.3034"/>
</g>
</g>
</svg>
