<?xml version="1.0" encoding="UTF-8" standalone="no"?>
<!DOCTYPE svg PUBLIC "-//W3C//DTD SVG 1.1//EN"
 "http://www.w3.org/Graphics/SVG/1.1/DTD/svg11.dtd">
<!-- Generated by graphviz version 2.38.0 (20140413.2041)
 -->
<!-- Title: Framework/src/runMergerTest.cxx Pages: 1 -->
<svg width="2322pt" height="442pt"
 viewBox="0.00 0.00 2321.50 442.00" xmlns="http://www.w3.org/2000/svg" xmlns:xlink="http://www.w3.org/1999/xlink">
<g id="graph0" class="graph" transform="scale(1 1) rotate(0) translate(4 438)">
<title>Framework/src/runMergerTest.cxx</title>
<!-- Node1 -->
<g id="node1" class="node"><title>Node1</title>
<polygon fill="#bfbfbf" stroke="black" points="454,-414.5 454,-433.5 621,-433.5 621,-414.5 454,-414.5"/>
<text text-anchor="middle" x="537.5" y="-421.5" font-family="Helvetica,sans-Serif" font-size="10.00">Framework/src/runMergerTest.cxx</text>
</g>
<!-- Node2 -->
<g id="node2" class="node"><title>Node2</title>
<polygon fill="none" stroke="#bfbfbf" points="0,-353 0,-372 71,-372 71,-353 0,-353"/>
<text text-anchor="middle" x="35.5" y="-360" font-family="Helvetica,sans-Serif" font-size="10.00">FairLogger.h</text>
</g>
<!-- Node1&#45;&gt;Node2 -->
<g id="edge1" class="edge"><title>Node1&#45;&gt;Node2</title>
<path fill="none" stroke="midnightblue" d="M453.947,-419.266C362.728,-414.127 212.679,-402.557 85.5,-378 80.8105,-377.094 75.9265,-375.945 71.1282,-374.691"/>
<polygon fill="midnightblue" stroke="midnightblue" points="72.0609,-371.317 61.489,-372.014 70.1879,-378.062 72.0609,-371.317"/>
</g>
<!-- Node3 -->
<g id="node3" class="node"><title>Node3</title>
<polygon fill="none" stroke="#bfbfbf" points="91,-291.5 91,-310.5 244,-310.5 244,-291.5 91,-291.5"/>
<text text-anchor="middle" x="167.5" y="-298.5" font-family="Helvetica,sans-Serif" font-size="10.00">Framework/CompletionPolicy.h</text>
</g>
<!-- Node1&#45;&gt;Node3 -->
<g id="edge2" class="edge"><title>Node1&#45;&gt;Node3</title>
<path fill="none" stroke="midnightblue" d="M453.975,-419.911C338.161,-414.755 140.471,-402.457 118.5,-378 101.241,-358.789 126.395,-332.886 146.581,-316.824"/>
<polygon fill="midnightblue" stroke="midnightblue" points="148.942,-319.426 154.79,-310.591 144.709,-313.851 148.942,-319.426"/>
</g>
<!-- Node4 -->
<g id="node4" class="node"><title>Node4</title>
<polygon fill="none" stroke="#bfbfbf" points="128,-347.5 128,-377.5 273,-377.5 273,-347.5 128,-347.5"/>
<text text-anchor="start" x="136" y="-365.5" font-family="Helvetica,sans-Serif" font-size="10.00">Framework/CompletionPolicy</text>
<text text-anchor="middle" x="200.5" y="-354.5" font-family="Helvetica,sans-Serif" font-size="10.00">Helpers.h</text>
</g>
<!-- Node1&#45;&gt;Node4 -->
<g id="edge3" class="edge"><title>Node1&#45;&gt;Node4</title>
<path fill="none" stroke="midnightblue" d="M489.088,-414.462C439.899,-405.785 361.222,-391.905 283.361,-378.152"/>
<polygon fill="midnightblue" stroke="midnightblue" points="283.834,-374.681 273.377,-376.388 282.616,-381.574 283.834,-374.681"/>
</g>
<!-- Node5 -->
<g id="node5" class="node"><title>Node5</title>
<polygon fill="none" stroke="#bfbfbf" points="291.5,-353 291.5,-372 341.5,-372 341.5,-353 291.5,-353"/>
<text text-anchor="middle" x="316.5" y="-360" font-family="Helvetica,sans-Serif" font-size="10.00">TH1F.h</text>
</g>
<!-- Node1&#45;&gt;Node5 -->
<g id="edge4" class="edge"><title>Node1&#45;&gt;Node5</title>
<path fill="none" stroke="midnightblue" d="M493.088,-414.495C454.827,-406.653 398.368,-393.844 350.5,-378 348.581,-377.365 346.619,-376.666 344.655,-375.93"/>
<polygon fill="midnightblue" stroke="midnightblue" points="345.574,-372.527 334.99,-372.047 342.965,-379.023 345.574,-372.527"/>
</g>
<!-- Node6 -->
<g id="node6" class="node"><title>Node6</title>
<polygon fill="none" stroke="#bfbfbf" points="1957.5,-62 1957.5,-81 2009.5,-81 2009.5,-62 1957.5,-62"/>
<text text-anchor="middle" x="1983.5" y="-69" font-family="Helvetica,sans-Serif" font-size="10.00">memory</text>
</g>
<!-- Node1&#45;&gt;Node6 -->
<g id="edge5" class="edge"><title>Node1&#45;&gt;Node6</title>
<path fill="none" stroke="midnightblue" d="M621.353,-423.227C897.586,-423.549 1777.32,-421.078 2057.5,-378 2174.81,-359.964 2313.5,-420.686 2313.5,-302 2313.5,-302 2313.5,-302 2313.5,-188 2313.5,-126.308 2105.44,-89.7656 2019.73,-77.3297"/>
<polygon fill="midnightblue" stroke="midnightblue" points="2020.06,-73.8416 2009.67,-75.8993 2019.08,-80.772 2020.06,-73.8416"/>
</g>
<!-- Node7 -->
<g id="node7" class="node"><title>Node7</title>
<polygon fill="none" stroke="#bfbfbf" points="513,-353 513,-372 562,-372 562,-353 513,-353"/>
<text text-anchor="middle" x="537.5" y="-360" font-family="Helvetica,sans-Serif" font-size="10.00">random</text>
</g>
<!-- Node1&#45;&gt;Node7 -->
<g id="edge6" class="edge"><title>Node1&#45;&gt;Node7</title>
<path fill="none" stroke="midnightblue" d="M537.5,-414.475C537.5,-406.08 537.5,-392.981 537.5,-382.163"/>
<polygon fill="midnightblue" stroke="midnightblue" points="541,-382.009 537.5,-372.009 534,-382.009 541,-382.009"/>
</g>
<!-- Node8 -->
<g id="node8" class="node"><title>Node8</title>
<polygon fill="none" stroke="#bfbfbf" points="580.5,-353 580.5,-372 740.5,-372 740.5,-353 580.5,-353"/>
<text text-anchor="middle" x="660.5" y="-360" font-family="Helvetica,sans-Serif" font-size="10.00">Framework/runDataProcessing.h</text>
</g>
<!-- Node1&#45;&gt;Node8 -->
<g id="edge7" class="edge"><title>Node1&#45;&gt;Node8</title>
<path fill="none" stroke="midnightblue" d="M555.123,-414.475C575.674,-404.534 609.864,-387.995 633.707,-376.461"/>
<polygon fill="midnightblue" stroke="midnightblue" points="635.432,-379.515 642.91,-372.009 632.384,-373.213 635.432,-379.515"/>
</g>
<!-- Node9 -->
<g id="node9" class="node"><title>Node9</title>
<g id="a_node9"><a xlink:href="Checker_8h.html" target="_top" xlink:title="QualityControl/Checker.h">
<polygon fill="none" stroke="black" points="937,-353 937,-372 1064,-372 1064,-353 937,-353"/>
<text text-anchor="middle" x="1000.5" y="-360" font-family="Helvetica,sans-Serif" font-size="10.00">QualityControl/Checker.h</text>
</a>
</g>
</g>
<!-- Node1&#45;&gt;Node9 -->
<g id="edge8" class="edge"><title>Node1&#45;&gt;Node9</title>
<path fill="none" stroke="midnightblue" d="M621.071,-415.339C700.223,-407.615 822.288,-394.491 927.5,-378 934.956,-376.831 942.809,-375.441 950.491,-373.991"/>
<polygon fill="midnightblue" stroke="midnightblue" points="951.29,-377.402 960.442,-372.065 949.959,-370.529 951.29,-377.402"/>
</g>
<!-- Node43 -->
<g id="node43" class="node"><title>Node43</title>
<g id="a_node43"><a xlink:href="CheckerFactory_8h.html" target="_top" xlink:title="QualityControl/CheckerFactory.h">
<polygon fill="none" stroke="black" points="758.5,-353 758.5,-372 918.5,-372 918.5,-353 758.5,-353"/>
<text text-anchor="middle" x="838.5" y="-360" font-family="Helvetica,sans-Serif" font-size="10.00">QualityControl/CheckerFactory.h</text>
</a>
</g>
</g>
<!-- Node1&#45;&gt;Node43 -->
<g id="edge58" class="edge"><title>Node1&#45;&gt;Node43</title>
<path fill="none" stroke="midnightblue" d="M580.626,-414.475C634.605,-403.805 727.036,-385.534 785.337,-374.009"/>
<polygon fill="midnightblue" stroke="midnightblue" points="786.323,-377.382 795.454,-372.009 784.965,-370.515 786.323,-377.382"/>
</g>
<!-- Node45 -->
<g id="node45" class="node"><title>Node45</title>
<g id="a_node45"><a xlink:href="HistoMerger_8h.html" target="_top" xlink:title="QualityControl/HistoMerger.h">
<polygon fill="none" stroke="black" points="1905,-353 1905,-372 2048,-372 2048,-353 1905,-353"/>
<text text-anchor="middle" x="1976.5" y="-360" font-family="Helvetica,sans-Serif" font-size="10.00">QualityControl/HistoMerger.h</text>
</a>
</g>
</g>
<!-- Node1&#45;&gt;Node45 -->
<g id="edge60" class="edge"><title>Node1&#45;&gt;Node45</title>
<path fill="none" stroke="midnightblue" d="M621.087,-419.544C876.083,-409 1642.03,-377.33 1894.67,-366.884"/>
<polygon fill="midnightblue" stroke="midnightblue" points="1895.03,-370.372 1904.87,-366.462 1894.74,-363.378 1895.03,-370.372"/>
</g>
<!-- Node49 -->
<g id="node49" class="node"><title>Node49</title>
<g id="a_node49"><a xlink:href="TaskRunnerFactory_8h.html" target="_top" xlink:title="QualityControl/TaskRunner\lFactory.h">
<polygon fill="none" stroke="black" points="360,-347.5 360,-377.5 495,-377.5 495,-347.5 360,-347.5"/>
<text text-anchor="start" x="368" y="-365.5" font-family="Helvetica,sans-Serif" font-size="10.00">QualityControl/TaskRunner</text>
<text text-anchor="middle" x="427.5" y="-354.5" font-family="Helvetica,sans-Serif" font-size="10.00">Factory.h</text>
</a>
</g>
</g>
<!-- Node1&#45;&gt;Node49 -->
<g id="edge68" class="edge"><title>Node1&#45;&gt;Node49</title>
<path fill="none" stroke="midnightblue" d="M521.74,-414.475C506.285,-406.115 482.205,-393.09 462.255,-382.299"/>
<polygon fill="midnightblue" stroke="midnightblue" points="463.886,-379.202 453.425,-377.523 460.555,-385.359 463.886,-379.202"/>
</g>
<!-- Node9&#45;&gt;Node6 -->
<g id="edge10" class="edge"><title>Node9&#45;&gt;Node6</title>
<path fill="none" stroke="midnightblue" d="M1064.25,-358.438C1153.94,-353.249 1322.1,-340.286 1462.5,-311 1626.12,-276.871 1665.64,-259.365 1821.5,-199 1876.38,-177.744 1897.84,-182.47 1941.5,-143 1957.47,-128.561 1969.22,-106.601 1976.17,-91.0314"/>
<polygon fill="midnightblue" stroke="midnightblue" points="1979.55,-92.0192 1980.21,-81.4446 1973.1,-89.3034 1979.55,-92.0192"/>
</g>
<!-- Node10 -->
<g id="node10" class="node"><title>Node10</title>
<polygon fill="none" stroke="#bfbfbf" points="991.5,-291.5 991.5,-310.5 1037.5,-310.5 1037.5,-291.5 991.5,-291.5"/>
<text text-anchor="middle" x="1014.5" y="-298.5" font-family="Helvetica,sans-Serif" font-size="10.00">chrono</text>
</g>
<!-- Node9&#45;&gt;Node10 -->
<g id="edge9" class="edge"><title>Node9&#45;&gt;Node10</title>
<path fill="none" stroke="midnightblue" d="M1002.51,-352.975C1004.5,-344.492 1007.63,-331.204 1010.19,-320.322"/>
<polygon fill="midnightblue" stroke="midnightblue" points="1013.61,-321.045 1012.5,-310.509 1006.8,-319.442 1013.61,-321.045"/>
</g>
<!-- Node11 -->
<g id="node11" class="node"><title>Node11</title>
<polygon fill="none" stroke="#bfbfbf" points="1779.5,-291.5 1779.5,-310.5 1871.5,-310.5 1871.5,-291.5 1779.5,-291.5"/>
<text text-anchor="middle" x="1825.5" y="-298.5" font-family="Helvetica,sans-Serif" font-size="10.00">Common/Timer.h</text>
</g>
<!-- Node9&#45;&gt;Node11 -->
<g id="edge11" class="edge"><title>Node9&#45;&gt;Node11</title>
<path fill="none" stroke="midnightblue" d="M1064.13,-359.087C1195.49,-353.711 1506.12,-338.966 1765.5,-311 1766.77,-310.863 1768.05,-310.72 1769.34,-310.57"/>
<polygon fill="midnightblue" stroke="midnightblue" points="1769.87,-314.03 1779.36,-309.315 1769,-307.084 1769.87,-314.03"/>
</g>
<!-- Node12 -->
<g id="node12" class="node"><title>Node12</title>
<polygon fill="none" stroke="#bfbfbf" points="1055,-56.5 1055,-86.5 1190,-86.5 1190,-56.5 1055,-56.5"/>
<text text-anchor="start" x="1063" y="-74.5" font-family="Helvetica,sans-Serif" font-size="10.00">Configuration/Configuration</text>
<text text-anchor="middle" x="1122.5" y="-63.5" font-family="Helvetica,sans-Serif" font-size="10.00">Interface.h</text>
</g>
<!-- Node9&#45;&gt;Node12 -->
<g id="edge12" class="edge"><title>Node9&#45;&gt;Node12</title>
<path fill="none" stroke="midnightblue" d="M995.663,-352.82C985.634,-333.984 963.5,-287.691 963.5,-246 963.5,-246 963.5,-246 963.5,-188 963.5,-137.672 1016.29,-106.996 1061.03,-90.033"/>
<polygon fill="midnightblue" stroke="midnightblue" points="1062.23,-93.3216 1070.44,-86.6194 1059.84,-86.7417 1062.23,-93.3216"/>
</g>
<!-- Node13 -->
<g id="node13" class="node"><title>Node13</title>
<polygon fill="none" stroke="#bfbfbf" points="1889.5,-291.5 1889.5,-310.5 1987.5,-310.5 1987.5,-291.5 1889.5,-291.5"/>
<text text-anchor="middle" x="1938.5" y="-298.5" font-family="Helvetica,sans-Serif" font-size="10.00">Framework/Task.h</text>
</g>
<!-- Node9&#45;&gt;Node13 -->
<g id="edge13" class="edge"><title>Node9&#45;&gt;Node13</title>
<path fill="none" stroke="midnightblue" d="M1064.17,-359.955C1207.76,-356.015 1567.92,-343.581 1879.37,-311.013"/>
<polygon fill="midnightblue" stroke="midnightblue" points="1879.92,-314.474 1889.5,-309.945 1879.18,-307.513 1879.92,-314.474"/>
</g>
<!-- Node14 -->
<g id="node14" class="node"><title>Node14</title>
<polygon fill="none" stroke="#bfbfbf" points="670,-291.5 670,-310.5 821,-310.5 821,-291.5 670,-291.5"/>
<text text-anchor="middle" x="745.5" y="-298.5" font-family="Helvetica,sans-Serif" font-size="10.00">Monitoring/MonitoringFactory.h</text>
</g>
<!-- Node9&#45;&gt;Node14 -->
<g id="edge14" class="edge"><title>Node9&#45;&gt;Node14</title>
<path fill="none" stroke="midnightblue" d="M963.965,-352.975C918.614,-342.393 841.224,-324.336 791.771,-312.797"/>
<polygon fill="midnightblue" stroke="midnightblue" points="792.501,-309.373 781.968,-310.509 790.911,-316.19 792.501,-309.373"/>
</g>
<!-- Node15 -->
<g id="node15" class="node"><title>Node15</title>
<g id="a_node15"><a xlink:href="CheckInterface_8h.html" target="_top" xlink:title="QualityControl/CheckInterface.h">
<polygon fill="none" stroke="black" points="590,-179.5 590,-198.5 747,-198.5 747,-179.5 590,-179.5"/>
<text text-anchor="middle" x="668.5" y="-186.5" font-family="Helvetica,sans-Serif" font-size="10.00">QualityControl/CheckInterface.h</text>
</a>
</g>
</g>
<!-- Node9&#45;&gt;Node15 -->
<g id="edge15" class="edge"><title>Node9&#45;&gt;Node15</title>
<path fill="none" stroke="midnightblue" d="M984.036,-352.995C930.273,-325.223 759.572,-237.045 694.259,-203.306"/>
<polygon fill="midnightblue" stroke="midnightblue" points="695.554,-200.036 685.063,-198.556 692.342,-206.255 695.554,-200.036"/>
</g>
<!-- Node16 -->
<g id="node16" class="node"><title>Node16</title>
<g id="a_node16"><a xlink:href="MonitorObject_8h.html" target="_top" xlink:title="QualityControl/MonitorObject.h">
<polygon fill="none" stroke="black" points="622,-123.5 622,-142.5 773,-142.5 773,-123.5 622,-123.5"/>
<text text-anchor="middle" x="697.5" y="-130.5" font-family="Helvetica,sans-Serif" font-size="10.00">QualityControl/MonitorObject.h</text>
</a>
</g>
</g>
<!-- Node9&#45;&gt;Node16 -->
<g id="edge30" class="edge"><title>Node9&#45;&gt;Node16</title>
<path fill="none" stroke="midnightblue" d="M960.038,-352.998C949.472,-350.906 938.079,-348.762 927.5,-347 809.387,-327.326 767.927,-363.889 660.5,-311 597.06,-279.767 574.705,-264.268 547.5,-199 533.55,-165.531 570.881,-149.279 611.785,-141.396"/>
<polygon fill="midnightblue" stroke="midnightblue" points="612.425,-144.837 621.666,-139.656 611.211,-137.943 612.425,-144.837"/>
</g>
<!-- Node24 -->
<g id="node24" class="node"><title>Node24</title>
<g id="a_node24"><a xlink:href="DatabaseInterface_8h.html" target="_top" xlink:title="QualityControl/DatabaseInterface.h">
<polygon fill="none" stroke="black" points="765.5,-179.5 765.5,-198.5 935.5,-198.5 935.5,-179.5 765.5,-179.5"/>
<text text-anchor="middle" x="850.5" y="-186.5" font-family="Helvetica,sans-Serif" font-size="10.00">QualityControl/DatabaseInterface.h</text>
</a>
</g>
</g>
<!-- Node9&#45;&gt;Node24 -->
<g id="edge26" class="edge"><title>Node9&#45;&gt;Node24</title>
<path fill="none" stroke="midnightblue" d="M991.182,-352.838C980.729,-342.993 963.417,-326.302 949.5,-311 916.951,-275.212 881.738,-230.606 863.347,-206.807"/>
<polygon fill="midnightblue" stroke="midnightblue" points="866.033,-204.559 857.162,-198.767 860.485,-208.827 866.033,-204.559"/>
</g>
<!-- Node26 -->
<g id="node26" class="node"><title>Node26</title>
<g id="a_node26"><a xlink:href="QcInfoLogger_8h.html" target="_top" xlink:title="QualityControl/QcInfoLogger.h">
<polygon fill="none" stroke="black" points="1305,-291.5 1305,-310.5 1454,-310.5 1454,-291.5 1305,-291.5"/>
<text text-anchor="middle" x="1379.5" y="-298.5" font-family="Helvetica,sans-Serif" font-size="10.00">QualityControl/QcInfoLogger.h</text>
</a>
</g>
</g>
<!-- Node9&#45;&gt;Node26 -->
<g id="edge31" class="edge"><title>Node9&#45;&gt;Node26</title>
<path fill="none" stroke="midnightblue" d="M1054.8,-352.975C1123.61,-342.172 1242.05,-323.578 1315.28,-312.083"/>
<polygon fill="midnightblue" stroke="midnightblue" points="1315.96,-315.518 1325.3,-310.509 1314.88,-308.602 1315.96,-315.518"/>
</g>
<!-- Node15&#45;&gt;Node16 -->
<g id="edge16" class="edge"><title>Node15&#45;&gt;Node16</title>
<path fill="none" stroke="midnightblue" d="M673.289,-179.083C677.258,-171.691 683.025,-160.953 687.935,-151.811"/>
<polygon fill="midnightblue" stroke="midnightblue" points="691.153,-153.217 692.8,-142.751 684.986,-149.905 691.153,-153.217"/>
</g>
<!-- Node21 -->
<g id="node21" class="node"><title>Node21</title>
<g id="a_node21"><a xlink:href="Quality_8h.html" target="_top" xlink:title="QualityControl/Quality.h">
<polygon fill="none" stroke="black" points="844,-62 844,-81 965,-81 965,-62 844,-62"/>
<text text-anchor="middle" x="904.5" y="-69" font-family="Helvetica,sans-Serif" font-size="10.00">QualityControl/Quality.h</text>
</a>
</g>
</g>
<!-- Node15&#45;&gt;Node21 -->
<g id="edge25" class="edge"><title>Node15&#45;&gt;Node21</title>
<path fill="none" stroke="midnightblue" d="M692.732,-179.482C715.907,-171.072 751.644,-157.412 781.5,-143 817.701,-125.525 857.774,-101.653 882.044,-86.659"/>
<polygon fill="midnightblue" stroke="midnightblue" points="884.186,-89.448 890.827,-81.1928 880.488,-83.5048 884.186,-89.448"/>
</g>
<!-- Node17 -->
<g id="node17" class="node"><title>Node17</title>
<polygon fill="none" stroke="#bfbfbf" points="771.5,-62 771.5,-81 825.5,-81 825.5,-62 771.5,-62"/>
<text text-anchor="middle" x="798.5" y="-69" font-family="Helvetica,sans-Serif" font-size="10.00">iostream</text>
</g>
<!-- Node16&#45;&gt;Node17 -->
<g id="edge17" class="edge"><title>Node16&#45;&gt;Node17</title>
<path fill="none" stroke="midnightblue" d="M711.971,-123.475C728.471,-113.755 755.678,-97.7266 775.181,-86.2372"/>
<polygon fill="midnightblue" stroke="midnightblue" points="777.216,-89.1005 784.056,-81.0091 773.663,-83.0693 777.216,-89.1005"/>
</g>
<!-- Node18 -->
<g id="node18" class="node"><title>Node18</title>
<polygon fill="none" stroke="#bfbfbf" points="680,-62 680,-81 715,-81 715,-62 680,-62"/>
<text text-anchor="middle" x="697.5" y="-69" font-family="Helvetica,sans-Serif" font-size="10.00">map</text>
</g>
<!-- Node16&#45;&gt;Node18 -->
<g id="edge18" class="edge"><title>Node16&#45;&gt;Node18</title>
<path fill="none" stroke="midnightblue" d="M697.5,-123.475C697.5,-115.08 697.5,-101.981 697.5,-91.1631"/>
<polygon fill="midnightblue" stroke="midnightblue" points="701,-91.0091 697.5,-81.0091 694,-91.0091 701,-91.0091"/>
</g>
<!-- Node19 -->
<g id="node19" class="node"><title>Node19</title>
<polygon fill="none" stroke="#bfbfbf" points="758,-0.5 758,-19.5 817,-19.5 817,-0.5 758,-0.5"/>
<text text-anchor="middle" x="787.5" y="-7.5" font-family="Helvetica,sans-Serif" font-size="10.00">TObject.h</text>
</g>
<!-- Node16&#45;&gt;Node19 -->
<g id="edge19" class="edge"><title>Node16&#45;&gt;Node19</title>
<path fill="none" stroke="midnightblue" d="M703.973,-123.298C718.827,-103.327 755.575,-53.9212 775.001,-27.8036"/>
<polygon fill="midnightblue" stroke="midnightblue" points="777.926,-29.7359 781.086,-19.6232 772.31,-25.5581 777.926,-29.7359"/>
</g>
<!-- Node20 -->
<g id="node20" class="node"><title>Node20</title>
<polygon fill="none" stroke="#bfbfbf" points="545.5,-62 545.5,-81 661.5,-81 661.5,-62 545.5,-62"/>
<text text-anchor="middle" x="603.5" y="-69" font-family="Helvetica,sans-Serif" font-size="10.00">Common/Exceptions.h</text>
</g>
<!-- Node16&#45;&gt;Node20 -->
<g id="edge20" class="edge"><title>Node16&#45;&gt;Node20</title>
<path fill="none" stroke="midnightblue" d="M684.032,-123.475C668.815,-113.843 643.813,-98.0175 625.699,-86.5517"/>
<polygon fill="midnightblue" stroke="midnightblue" points="627.264,-83.4002 616.943,-81.0091 623.521,-89.3149 627.264,-83.4002"/>
</g>
<!-- Node16&#45;&gt;Node21 -->
<g id="edge21" class="edge"><title>Node16&#45;&gt;Node21</title>
<path fill="none" stroke="midnightblue" d="M727.158,-123.475C763.434,-113.048 824.964,-95.3618 865.164,-83.8066"/>
<polygon fill="midnightblue" stroke="midnightblue" points="866.253,-87.1355 874.897,-81.0091 864.319,-80.4079 866.253,-87.1355"/>
</g>
<!-- Node21&#45;&gt;Node19 -->
<g id="edge22" class="edge"><title>Node21&#45;&gt;Node19</title>
<path fill="none" stroke="midnightblue" d="M887.737,-61.9751C868.275,-52.078 835.955,-35.6416 813.289,-24.1151"/>
<polygon fill="midnightblue" stroke="midnightblue" points="814.732,-20.9224 804.232,-19.5091 811.559,-27.1619 814.732,-20.9224"/>
</g>
<!-- Node22 -->
<g id="node22" class="node"><title>Node22</title>
<polygon fill="none" stroke="#bfbfbf" points="878.5,-0.5 878.5,-19.5 930.5,-19.5 930.5,-0.5 878.5,-0.5"/>
<text text-anchor="middle" x="904.5" y="-7.5" font-family="Helvetica,sans-Serif" font-size="10.00">ostream</text>
</g>
<!-- Node21&#45;&gt;Node22 -->
<g id="edge23" class="edge"><title>Node21&#45;&gt;Node22</title>
<path fill="none" stroke="midnightblue" d="M904.5,-61.9751C904.5,-53.5803 904.5,-40.4806 904.5,-29.6631"/>
<polygon fill="midnightblue" stroke="midnightblue" points="908,-29.5091 904.5,-19.5091 901,-29.5091 908,-29.5091"/>
</g>
<!-- Node23 -->
<g id="node23" class="node"><title>Node23</title>
<polygon fill="none" stroke="#bfbfbf" points="1475,-0.5 1475,-19.5 1516,-19.5 1516,-0.5 1475,-0.5"/>
<text text-anchor="middle" x="1495.5" y="-7.5" font-family="Helvetica,sans-Serif" font-size="10.00">string</text>
</g>
<!-- Node21&#45;&gt;Node23 -->
<g id="edge24" class="edge"><title>Node21&#45;&gt;Node23</title>
<path fill="none" stroke="midnightblue" d="M965.224,-64.2177C990.103,-61.6536 1019.18,-58.6692 1045.5,-56 1203.02,-40.025 1391.59,-21.2962 1464.56,-14.0637"/>
<polygon fill="midnightblue" stroke="midnightblue" points="1465.26,-17.5117 1474.87,-13.0426 1464.57,-10.5458 1465.26,-17.5117"/>
</g>
<!-- Node24&#45;&gt;Node6 -->
<g id="edge28" class="edge"><title>Node24&#45;&gt;Node6</title>
<path fill="none" stroke="midnightblue" d="M935.687,-181.838C951.256,-180.813 967.362,-179.818 982.5,-179 1082.54,-173.592 1788.62,-175.182 1883.5,-143 1916.99,-131.64 1949.22,-105.235 1967.66,-88.1602"/>
<polygon fill="midnightblue" stroke="midnightblue" points="1970.29,-90.49 1975.12,-81.0593 1965.46,-85.4206 1970.29,-90.49"/>
</g>
<!-- Node24&#45;&gt;Node16 -->
<g id="edge27" class="edge"><title>Node24&#45;&gt;Node16</title>
<path fill="none" stroke="midnightblue" d="M826.257,-179.444C800.629,-170.399 760.015,-156.064 731.262,-145.916"/>
<polygon fill="midnightblue" stroke="midnightblue" points="732.225,-142.544 721.63,-142.516 729.895,-149.145 732.225,-142.544"/>
</g>
<!-- Node25 -->
<g id="node25" class="node"><title>Node25</title>
<polygon fill="none" stroke="#bfbfbf" points="830,-123.5 830,-142.5 913,-142.5 913,-123.5 830,-123.5"/>
<text text-anchor="middle" x="871.5" y="-130.5" font-family="Helvetica,sans-Serif" font-size="10.00">unordered_map</text>
</g>
<!-- Node24&#45;&gt;Node25 -->
<g id="edge29" class="edge"><title>Node24&#45;&gt;Node25</title>
<path fill="none" stroke="midnightblue" d="M853.968,-179.083C856.812,-171.77 860.929,-161.181 864.46,-152.103"/>
<polygon fill="midnightblue" stroke="midnightblue" points="867.734,-153.34 868.097,-142.751 861.21,-150.803 867.734,-153.34"/>
</g>
<!-- Node26&#45;&gt;Node17 -->
<g id="edge57" class="edge"><title>Node26&#45;&gt;Node17</title>
<path fill="none" stroke="midnightblue" d="M1425.51,-291.45C1448.65,-284.991 1475.52,-273.876 1493.5,-255 1517.51,-229.786 1536.02,-204.674 1512.5,-179 1481.61,-145.279 1147.74,-149.689 1102.5,-143 982.125,-125.203 950.947,-122.314 834.5,-87 832.215,-86.3071 829.873,-85.5281 827.533,-84.7002"/>
<polygon fill="midnightblue" stroke="midnightblue" points="828.672,-81.389 818.081,-81.1166 826.19,-87.9344 828.672,-81.389"/>
</g>
<!-- Node27 -->
<g id="node27" class="node"><title>Node27</title>
<g id="a_node27"><a xlink:href="TaskInterface_8h.html" target="_top" xlink:title="TaskInterface.h">
<polygon fill="none" stroke="black" points="1400,-235.5 1400,-254.5 1485,-254.5 1485,-235.5 1400,-235.5"/>
<text text-anchor="middle" x="1442.5" y="-242.5" font-family="Helvetica,sans-Serif" font-size="10.00">TaskInterface.h</text>
</a>
</g>
</g>
<!-- Node26&#45;&gt;Node27 -->
<g id="edge32" class="edge"><title>Node26&#45;&gt;Node27</title>
<path fill="none" stroke="midnightblue" d="M1389.62,-291.324C1399.03,-283.263 1413.24,-271.077 1424.57,-261.369"/>
<polygon fill="midnightblue" stroke="midnightblue" points="1426.88,-263.999 1432.19,-254.834 1422.32,-258.684 1426.88,-263.999"/>
</g>
<!-- Node42 -->
<g id="node42" class="node"><title>Node42</title>
<polygon fill="none" stroke="#bfbfbf" points="1251.5,-235.5 1251.5,-254.5 1381.5,-254.5 1381.5,-235.5 1251.5,-235.5"/>
<text text-anchor="middle" x="1316.5" y="-242.5" font-family="Helvetica,sans-Serif" font-size="10.00">InfoLogger/InfoLogger.hxx</text>
</g>
<!-- Node26&#45;&gt;Node42 -->
<g id="edge56" class="edge"><title>Node26&#45;&gt;Node42</title>
<path fill="none" stroke="midnightblue" d="M1369.38,-291.324C1359.97,-283.263 1345.76,-271.077 1334.43,-261.369"/>
<polygon fill="midnightblue" stroke="midnightblue" points="1336.68,-258.684 1326.81,-254.834 1332.12,-263.999 1336.68,-258.684"/>
</g>
<!-- Node27&#45;&gt;Node6 -->
<g id="edge33" class="edge"><title>Node27&#45;&gt;Node6</title>
<path fill="none" stroke="midnightblue" d="M1485.16,-241.234C1548.16,-236.454 1669.43,-224.592 1769.5,-199 1837.23,-181.678 1858.31,-181.747 1916.5,-143 1938.59,-128.293 1958.81,-105.075 1971.13,-89.3369"/>
<polygon fill="midnightblue" stroke="midnightblue" points="1974.16,-91.1351 1977.42,-81.0563 1968.58,-86.8985 1974.16,-91.1351"/>
</g>
<!-- Node27&#45;&gt;Node12 -->
<g id="edge37" class="edge"><title>Node27&#45;&gt;Node12</title>
<path fill="none" stroke="midnightblue" d="M1463.99,-235.491C1491.14,-223.554 1532.11,-200.843 1512.5,-179 1462.78,-123.613 1244.84,-178.638 1179.5,-143 1159.86,-132.29 1144.46,-111.746 1134.65,-95.5862"/>
<polygon fill="midnightblue" stroke="midnightblue" points="1137.55,-93.6058 1129.52,-86.6856 1131.48,-97.0983 1137.55,-93.6058"/>
</g>
<!-- Node28 -->
<g id="node28" class="node"><title>Node28</title>
<polygon fill="none" stroke="#bfbfbf" points="992,-179.5 992,-198.5 1041,-198.5 1041,-179.5 992,-179.5"/>
<text text-anchor="middle" x="1016.5" y="-186.5" font-family="Helvetica,sans-Serif" font-size="10.00">cassert</text>
</g>
<!-- Node27&#45;&gt;Node28 -->
<g id="edge34" class="edge"><title>Node27&#45;&gt;Node28</title>
<path fill="none" stroke="midnightblue" d="M1399.97,-236.403C1396.77,-235.903 1393.59,-235.429 1390.5,-235 1242.8,-214.445 1201.06,-226.591 1051.29,-199.084"/>
<polygon fill="midnightblue" stroke="midnightblue" points="1051.74,-195.608 1041.27,-197.214 1050.46,-202.489 1051.74,-195.608"/>
</g>
<!-- Node29 -->
<g id="node29" class="node"><title>Node29</title>
<polygon fill="none" stroke="#bfbfbf" points="1059,-179.5 1059,-198.5 1184,-198.5 1184,-179.5 1059,-179.5"/>
<text text-anchor="middle" x="1121.5" y="-186.5" font-family="Helvetica,sans-Serif" font-size="10.00">Framework/InitContext.h</text>
</g>
<!-- Node27&#45;&gt;Node29 -->
<g id="edge35" class="edge"><title>Node27&#45;&gt;Node29</title>
<path fill="none" stroke="midnightblue" d="M1399.94,-236.613C1396.74,-236.065 1393.57,-235.523 1390.5,-235 1319.46,-222.91 1237.81,-209.291 1183.28,-200.233"/>
<polygon fill="midnightblue" stroke="midnightblue" points="1183.52,-196.726 1173.08,-198.541 1182.38,-203.631 1183.52,-196.726"/>
</g>
<!-- Node30 -->
<g id="node30" class="node"><title>Node30</title>
<polygon fill="none" stroke="#bfbfbf" points="1202.5,-179.5 1202.5,-198.5 1362.5,-198.5 1362.5,-179.5 1202.5,-179.5"/>
<text text-anchor="middle" x="1282.5" y="-186.5" font-family="Helvetica,sans-Serif" font-size="10.00">Framework/ProcessingContext.h</text>
</g>
<!-- Node27&#45;&gt;Node30 -->
<g id="edge36" class="edge"><title>Node27&#45;&gt;Node30</title>
<path fill="none" stroke="midnightblue" d="M1417.15,-235.444C1390.23,-226.359 1347.5,-211.939 1317.41,-201.783"/>
<polygon fill="midnightblue" stroke="midnightblue" points="1318.33,-198.398 1307.73,-198.516 1316.09,-205.031 1318.33,-198.398"/>
</g>
<!-- Node31 -->
<g id="node31" class="node"><title>Node31</title>
<g id="a_node31"><a xlink:href="Activity_8h.html" target="_top" xlink:title="QualityControl/Activity.h">
<polygon fill="none" stroke="black" points="1381,-179.5 1381,-198.5 1504,-198.5 1504,-179.5 1381,-179.5"/>
<text text-anchor="middle" x="1442.5" y="-186.5" font-family="Helvetica,sans-Serif" font-size="10.00">QualityControl/Activity.h</text>
</a>
</g>
</g>
<!-- Node27&#45;&gt;Node31 -->
<g id="edge38" class="edge"><title>Node27&#45;&gt;Node31</title>
<path fill="none" stroke="midnightblue" d="M1442.5,-235.083C1442.5,-228.006 1442.5,-217.861 1442.5,-208.986"/>
<polygon fill="midnightblue" stroke="midnightblue" points="1446,-208.751 1442.5,-198.751 1439,-208.751 1446,-208.751"/>
</g>
<!-- Node32 -->
<g id="node32" class="node"><title>Node32</title>
<g id="a_node32"><a xlink:href="ObjectsManager_8h.html" target="_top" xlink:title="QualityControl/ObjectsManager.h">
<polygon fill="none" stroke="black" points="1599,-179.5 1599,-198.5 1760,-198.5 1760,-179.5 1599,-179.5"/>
<text text-anchor="middle" x="1679.5" y="-186.5" font-family="Helvetica,sans-Serif" font-size="10.00">QualityControl/ObjectsManager.h</text>
</a>
</g>
</g>
<!-- Node27&#45;&gt;Node32 -->
<g id="edge39" class="edge"><title>Node27&#45;&gt;Node32</title>
<path fill="none" stroke="midnightblue" d="M1480.05,-235.444C1521.31,-226.043 1587.64,-210.929 1632.37,-200.739"/>
<polygon fill="midnightblue" stroke="midnightblue" points="1633.15,-204.151 1642.12,-198.516 1631.59,-197.326 1633.15,-204.151"/>
</g>
<!-- Node32&#45;&gt;Node16 -->
<g id="edge40" class="edge"><title>Node32&#45;&gt;Node16</title>
<path fill="none" stroke="midnightblue" d="M1598.81,-183.621C1571.41,-182.142 1540.62,-180.489 1512.5,-179 1204.96,-162.713 1127.87,-162.238 820.5,-143 808.563,-142.253 795.979,-141.403 783.599,-140.532"/>
<polygon fill="midnightblue" stroke="midnightblue" points="783.49,-137.015 773.267,-139.796 782.993,-143.997 783.49,-137.015"/>
</g>
<!-- Node32&#45;&gt;Node21 -->
<g id="edge41" class="edge"><title>Node32&#45;&gt;Node21</title>
<path fill="none" stroke="midnightblue" d="M1598.9,-182.336C1478.61,-173.612 1257.88,-156.483 1179.5,-143 1167.95,-141.012 1021.61,-103.023 947.259,-83.6544"/>
<polygon fill="midnightblue" stroke="midnightblue" points="947.826,-80.1854 937.267,-81.0507 946.061,-86.9592 947.826,-80.1854"/>
</g>
<!-- Node32&#45;&gt;Node23 -->
<g id="edge55" class="edge"><title>Node32&#45;&gt;Node23</title>
<path fill="none" stroke="midnightblue" d="M1679.06,-179.466C1677.95,-166.057 1674.07,-139.849 1660.5,-123 1639.54,-96.9751 1622.5,-105.228 1594.5,-87 1564.76,-67.6416 1532.56,-41.9494 1513.21,-25.9489"/>
<polygon fill="midnightblue" stroke="midnightblue" points="1515.44,-23.2498 1505.52,-19.5342 1510.96,-28.6263 1515.44,-23.2498"/>
</g>
<!-- Node33 -->
<g id="node33" class="node"><title>Node33</title>
<g id="a_node33"><a xlink:href="TaskConfig_8h.html" target="_top" xlink:title="QualityControl/TaskConfig.h">
<polygon fill="none" stroke="black" points="1188.5,-123.5 1188.5,-142.5 1328.5,-142.5 1328.5,-123.5 1188.5,-123.5"/>
<text text-anchor="middle" x="1258.5" y="-130.5" font-family="Helvetica,sans-Serif" font-size="10.00">QualityControl/TaskConfig.h</text>
</a>
</g>
</g>
<!-- Node32&#45;&gt;Node33 -->
<g id="edge42" class="edge"><title>Node32&#45;&gt;Node33</title>
<path fill="none" stroke="midnightblue" d="M1612.79,-179.444C1537.19,-169.747 1414.2,-153.971 1334.83,-143.791"/>
<polygon fill="midnightblue" stroke="midnightblue" points="1335.26,-140.317 1324.9,-142.516 1334.37,-147.26 1335.26,-140.317"/>
</g>
<!-- Node34 -->
<g id="node34" class="node"><title>Node34</title>
<g id="a_node34"><a xlink:href="ServiceDiscovery_8h_source.html" target="_top" xlink:title="QualityControl/ServiceDiscovery.h">
<polygon fill="none" stroke="black" points="1707,-123.5 1707,-142.5 1874,-142.5 1874,-123.5 1707,-123.5"/>
<text text-anchor="middle" x="1790.5" y="-130.5" font-family="Helvetica,sans-Serif" font-size="10.00">QualityControl/ServiceDiscovery.h</text>
</a>
</g>
</g>
<!-- Node32&#45;&gt;Node34 -->
<g id="edge45" class="edge"><title>Node32&#45;&gt;Node34</title>
<path fill="none" stroke="midnightblue" d="M1697.33,-179.324C1715.22,-170.625 1742.98,-157.12 1763.55,-147.113"/>
<polygon fill="midnightblue" stroke="midnightblue" points="1765.25,-150.177 1772.71,-142.655 1762.19,-143.882 1765.25,-150.177"/>
</g>
<!-- Node39 -->
<g id="node39" class="node"><title>Node39</title>
<polygon fill="none" stroke="#bfbfbf" points="1347,-123.5 1347,-142.5 1416,-142.5 1416,-123.5 1347,-123.5"/>
<text text-anchor="middle" x="1381.5" y="-130.5" font-family="Helvetica,sans-Serif" font-size="10.00">TObjArray.h</text>
</g>
<!-- Node32&#45;&gt;Node39 -->
<g id="edge52" class="edge"><title>Node32&#45;&gt;Node39</title>
<path fill="none" stroke="midnightblue" d="M1628.13,-179.426C1578.78,-171.079 1501.87,-157.781 1426.37,-143.319"/>
<polygon fill="midnightblue" stroke="midnightblue" points="1426.7,-139.817 1416.21,-141.364 1425.37,-146.691 1426.7,-139.817"/>
</g>
<!-- Node40 -->
<g id="node40" class="node"><title>Node40</title>
<polygon fill="none" stroke="#bfbfbf" points="1434,-123.5 1434,-142.5 1505,-142.5 1505,-123.5 1434,-123.5"/>
<text text-anchor="middle" x="1469.5" y="-130.5" font-family="Helvetica,sans-Serif" font-size="10.00">TObjString.h</text>
</g>
<!-- Node32&#45;&gt;Node40 -->
<g id="edge53" class="edge"><title>Node32&#45;&gt;Node40</title>
<path fill="none" stroke="midnightblue" d="M1646.22,-179.444C1610.05,-170.142 1552.12,-155.246 1512.52,-145.062"/>
<polygon fill="midnightblue" stroke="midnightblue" points="1513.18,-141.617 1502.62,-142.516 1511.43,-148.397 1513.18,-141.617"/>
</g>
<!-- Node41 -->
<g id="node41" class="node"><title>Node41</title>
<polygon fill="none" stroke="#bfbfbf" points="1523.5,-123.5 1523.5,-142.5 1651.5,-142.5 1651.5,-123.5 1523.5,-123.5"/>
<text text-anchor="middle" x="1587.5" y="-130.5" font-family="Helvetica,sans-Serif" font-size="10.00">boost/concept_check.hpp</text>
</g>
<!-- Node32&#45;&gt;Node41 -->
<g id="edge54" class="edge"><title>Node32&#45;&gt;Node41</title>
<path fill="none" stroke="midnightblue" d="M1664.72,-179.324C1650.23,-170.822 1627.93,-157.729 1611.01,-147.797"/>
<polygon fill="midnightblue" stroke="midnightblue" points="1612.64,-144.698 1602.24,-142.655 1609.1,-150.735 1612.64,-144.698"/>
</g>
<!-- Node33&#45;&gt;Node12 -->
<g id="edge44" class="edge"><title>Node33&#45;&gt;Node12</title>
<path fill="none" stroke="midnightblue" d="M1239.01,-123.475C1219.48,-114.927 1188.79,-101.501 1163.81,-90.5734"/>
<polygon fill="midnightblue" stroke="midnightblue" points="1165.12,-87.3247 1154.55,-86.523 1162.31,-93.7378 1165.12,-87.3247"/>
</g>
<!-- Node33&#45;&gt;Node23 -->
<g id="edge43" class="edge"><title>Node33&#45;&gt;Node23</title>
<path fill="none" stroke="midnightblue" d="M1275.17,-123.492C1315.86,-102.714 1420.55,-49.2651 1469.52,-24.2639"/>
<polygon fill="midnightblue" stroke="midnightblue" points="1471.22,-27.3255 1478.54,-19.661 1468.04,-21.091 1471.22,-27.3255"/>
</g>
<!-- Node34&#45;&gt;Node6 -->
<g id="edge48" class="edge"><title>Node34&#45;&gt;Node6</title>
<path fill="none" stroke="midnightblue" d="M1821.74,-123.423C1852.78,-114.756 1901.67,-100.719 1943.5,-87 1946.04,-86.1656 1948.67,-85.2767 1951.3,-84.3656"/>
<polygon fill="midnightblue" stroke="midnightblue" points="1952.48,-87.6618 1960.74,-81.0257 1950.14,-81.063 1952.48,-87.6618"/>
</g>
<!-- Node34&#45;&gt;Node23 -->
<g id="edge49" class="edge"><title>Node34&#45;&gt;Node23</title>
<path fill="none" stroke="midnightblue" d="M1852.92,-123.452C1874.83,-117.118 1897.26,-106.111 1910.5,-87 1918.35,-75.6757 1919.7,-66.254 1910.5,-56 1884.89,-27.4649 1618.03,-15.3562 1526.28,-12.0155"/>
<polygon fill="midnightblue" stroke="midnightblue" points="1526.35,-8.51587 1516.23,-11.6595 1526.1,-15.5115 1526.35,-8.51587"/>
</g>
<!-- Node35 -->
<g id="node35" class="node"><title>Node35</title>
<polygon fill="none" stroke="#bfbfbf" points="1855.5,-62 1855.5,-81 1901.5,-81 1901.5,-62 1855.5,-62"/>
<text text-anchor="middle" x="1878.5" y="-69" font-family="Helvetica,sans-Serif" font-size="10.00">atomic</text>
</g>
<!-- Node34&#45;&gt;Node35 -->
<g id="edge46" class="edge"><title>Node34&#45;&gt;Node35</title>
<path fill="none" stroke="midnightblue" d="M1803.11,-123.475C1817.22,-113.931 1840.33,-98.3073 1857.25,-86.8683"/>
<polygon fill="midnightblue" stroke="midnightblue" points="1859.59,-89.5098 1865.92,-81.0091 1855.67,-83.7109 1859.59,-89.5098"/>
</g>
<!-- Node36 -->
<g id="node36" class="node"><title>Node36</title>
<polygon fill="none" stroke="#bfbfbf" points="1604,-62 1604,-81 1663,-81 1663,-62 1604,-62"/>
<text text-anchor="middle" x="1633.5" y="-69" font-family="Helvetica,sans-Serif" font-size="10.00">curl/curl.h</text>
</g>
<!-- Node34&#45;&gt;Node36 -->
<g id="edge47" class="edge"><title>Node34&#45;&gt;Node36</title>
<path fill="none" stroke="midnightblue" d="M1768.01,-123.475C1741.19,-113.313 1696.18,-96.2564 1665.69,-84.6996"/>
<polygon fill="midnightblue" stroke="midnightblue" points="1666.54,-81.2801 1655.95,-81.0091 1664.06,-87.8258 1666.54,-81.2801"/>
</g>
<!-- Node37 -->
<g id="node37" class="node"><title>Node37</title>
<polygon fill="none" stroke="#bfbfbf" points="1681.5,-62 1681.5,-81 1725.5,-81 1725.5,-62 1681.5,-62"/>
<text text-anchor="middle" x="1703.5" y="-69" font-family="Helvetica,sans-Serif" font-size="10.00">thread</text>
</g>
<!-- Node34&#45;&gt;Node37 -->
<g id="edge50" class="edge"><title>Node34&#45;&gt;Node37</title>
<path fill="none" stroke="midnightblue" d="M1778.04,-123.475C1764.08,-113.931 1741.24,-98.3073 1724.51,-86.8683"/>
<polygon fill="midnightblue" stroke="midnightblue" points="1726.17,-83.7653 1715.94,-81.0091 1722.22,-89.5433 1726.17,-83.7653"/>
</g>
<!-- Node38 -->
<g id="node38" class="node"><title>Node38</title>
<polygon fill="none" stroke="#bfbfbf" points="1743.5,-56.5 1743.5,-86.5 1837.5,-86.5 1837.5,-56.5 1743.5,-56.5"/>
<text text-anchor="start" x="1751.5" y="-74.5" font-family="Helvetica,sans-Serif" font-size="10.00">boost/asio/ip/host</text>
<text text-anchor="middle" x="1790.5" y="-63.5" font-family="Helvetica,sans-Serif" font-size="10.00">_name.hpp</text>
</g>
<!-- Node34&#45;&gt;Node38 -->
<g id="edge51" class="edge"><title>Node34&#45;&gt;Node38</title>
<path fill="none" stroke="midnightblue" d="M1790.5,-123.475C1790.5,-116.471 1790.5,-106.192 1790.5,-96.6956"/>
<polygon fill="midnightblue" stroke="midnightblue" points="1794,-96.5229 1790.5,-86.523 1787,-96.523 1794,-96.5229"/>
</g>
<!-- Node44 -->
<g id="node44" class="node"><title>Node44</title>
<polygon fill="none" stroke="#bfbfbf" points="331.5,-291.5 331.5,-310.5 495.5,-310.5 495.5,-291.5 331.5,-291.5"/>
<text text-anchor="middle" x="413.5" y="-298.5" font-family="Helvetica,sans-Serif" font-size="10.00">Framework/DataProcessorSpec.h</text>
</g>
<!-- Node43&#45;&gt;Node44 -->
<g id="edge59" class="edge"><title>Node43&#45;&gt;Node44</title>
<path fill="none" stroke="midnightblue" d="M787.708,-352.97C775.225,-350.944 761.888,-348.838 749.5,-347 661.317,-333.914 559.854,-320.559 491.7,-311.835"/>
<polygon fill="midnightblue" stroke="midnightblue" points="491.836,-308.324 481.473,-310.529 490.949,-315.268 491.836,-308.324"/>
</g>
<!-- Node45&#45;&gt;Node6 -->
<g id="edge61" class="edge"><title>Node45&#45;&gt;Node6</title>
<path fill="none" stroke="midnightblue" d="M1981.6,-352.853C1992.17,-334.081 2015.5,-287.905 2015.5,-246 2015.5,-246 2015.5,-246 2015.5,-188 2015.5,-152.434 2001.23,-112.871 1991.75,-90.5039"/>
<polygon fill="midnightblue" stroke="midnightblue" points="1994.91,-88.9991 1987.68,-81.2553 1988.51,-91.8181 1994.91,-88.9991"/>
</g>
<!-- Node45&#45;&gt;Node11 -->
<g id="edge63" class="edge"><title>Node45&#45;&gt;Node11</title>
<path fill="none" stroke="midnightblue" d="M1954.87,-352.975C1929.08,-342.813 1885.79,-325.756 1856.46,-314.2"/>
<polygon fill="midnightblue" stroke="midnightblue" points="1857.68,-310.919 1847.09,-310.509 1855.12,-317.432 1857.68,-310.919"/>
</g>
<!-- Node45&#45;&gt;Node13 -->
<g id="edge64" class="edge"><title>Node45&#45;&gt;Node13</title>
<path fill="none" stroke="midnightblue" d="M1971.06,-352.975C1965.41,-344.138 1956.44,-330.089 1949.34,-318.975"/>
<polygon fill="midnightblue" stroke="midnightblue" points="1952.27,-317.053 1943.93,-310.509 1946.37,-320.821 1952.27,-317.053"/>
</g>
<!-- Node45&#45;&gt;Node16 -->
<g id="edge67" class="edge"><title>Node45&#45;&gt;Node16</title>
<path fill="none" stroke="midnightblue" d="M1904.75,-358.103C1780.4,-351.786 1516.92,-336.509 1295.5,-311 1215.62,-301.797 632.776,-260.102 580.5,-199 558.102,-172.82 600.899,-155.161 640.884,-144.935"/>
<polygon fill="midnightblue" stroke="midnightblue" points="641.788,-148.318 650.679,-142.557 640.136,-141.515 641.788,-148.318"/>
</g>
<!-- Node46 -->
<g id="node46" class="node"><title>Node46</title>
<polygon fill="none" stroke="#bfbfbf" points="2241.5,-291.5 2241.5,-310.5 2285.5,-310.5 2285.5,-291.5 2241.5,-291.5"/>
<text text-anchor="middle" x="2263.5" y="-298.5" font-family="Helvetica,sans-Serif" font-size="10.00">vector</text>
</g>
<!-- Node45&#45;&gt;Node46 -->
<g id="edge62" class="edge"><title>Node45&#45;&gt;Node46</title>
<path fill="none" stroke="midnightblue" d="M2026.82,-352.921C2076.52,-344.146 2154.88,-329.505 2231.41,-311.106"/>
<polygon fill="midnightblue" stroke="midnightblue" points="2232.32,-314.485 2241.21,-308.724 2230.67,-307.683 2232.32,-314.485"/>
</g>
<!-- Node47 -->
<g id="node47" class="node"><title>Node47</title>
<polygon fill="none" stroke="#bfbfbf" points="2044,-291.5 2044,-310.5 2161,-310.5 2161,-291.5 2044,-291.5"/>
<text text-anchor="middle" x="2102.5" y="-298.5" font-family="Helvetica,sans-Serif" font-size="10.00">Headers/DataHeader.h</text>
</g>
<!-- Node45&#45;&gt;Node47 -->
<g id="edge65" class="edge"><title>Node45&#45;&gt;Node47</title>
<path fill="none" stroke="midnightblue" d="M1994.55,-352.975C2015.7,-342.99 2050.94,-326.348 2075.38,-314.807"/>
<polygon fill="midnightblue" stroke="midnightblue" points="2076.93,-317.944 2084.48,-310.509 2073.94,-311.614 2076.93,-317.944"/>
</g>
<!-- Node48 -->
<g id="node48" class="node"><title>Node48</title>
<polygon fill="none" stroke="#bfbfbf" points="2179.5,-291.5 2179.5,-310.5 2223.5,-310.5 2223.5,-291.5 2179.5,-291.5"/>
<text text-anchor="middle" x="2201.5" y="-298.5" font-family="Helvetica,sans-Serif" font-size="10.00">TH1.h</text>
</g>
<!-- Node45&#45;&gt;Node48 -->
<g id="edge66" class="edge"><title>Node45&#45;&gt;Node48</title>
<path fill="none" stroke="midnightblue" d="M2010.57,-352.938C2047.4,-343.614 2108.07,-328.06 2169.34,-311.268"/>
<polygon fill="midnightblue" stroke="midnightblue" points="2170.46,-314.59 2179.17,-308.564 2168.6,-307.841 2170.46,-314.59"/>
</g>
<!-- Node49&#45;&gt;Node3 -->
<g id="edge69" class="edge"><title>Node49&#45;&gt;Node3</title>
<path fill="none" stroke="midnightblue" d="M366.213,-347.475C319.791,-336.851 256.963,-322.473 214.478,-312.751"/>
<polygon fill="midnightblue" stroke="midnightblue" points="215.199,-309.325 204.671,-310.506 213.638,-316.149 215.199,-309.325"/>
</g>
<!-- Node49&#45;&gt;Node44 -->
<g id="edge70" class="edge"><title>Node49&#45;&gt;Node44</title>
<path fill="none" stroke="midnightblue" d="M424.182,-347.399C422.295,-339.377 419.908,-329.233 417.869,-320.569"/>
<polygon fill="midnightblue" stroke="midnightblue" points="421.235,-319.59 415.537,-310.658 414.421,-321.194 421.235,-319.59"/>
</g>
</g>
</svg>
