<?xml version="1.0" encoding="UTF-8" standalone="no"?>
<!DOCTYPE svg PUBLIC "-//W3C//DTD SVG 1.1//EN"
 "http://www.w3.org/Graphics/SVG/1.1/DTD/svg11.dtd">
<!-- Generated by graphviz version 2.38.0 (20140413.2041)
 -->
<!-- Title: Framework/test/testQCTask.cxx Pages: 1 -->
<!--zoomable 442 -->
<svg id="main" version="1.1" xmlns="http://www.w3.org/2000/svg" xmlns:xlink="http://www.w3.org/1999/xlink" xml:space="preserve" onload="init(evt)">
<style type="text/css"><![CDATA[
.edge:hover path { stroke: red; }
.edge:hover polygon { stroke: red; fill: red; }
]]></style>
<script type="text/javascript"><![CDATA[
var edges = document.getElementsByTagName('g');
if (edges && edges.length) {
  for (var i=0;i<edges.length;i++) {
    if (edges[i].id.substr(0,4)=='edge') {
      edges[i].setAttribute('class','edge');
    }
  }
}
]]></script>
        <defs>
                <circle id="rim" cx="0" cy="0" r="7"/>
                <circle id="rim2" cx="0" cy="0" r="3.5"/>
                <g id="zoomPlus">
                        <use xlink:href="#rim" fill="#404040">
                                <set attributeName="fill" to="#808080" begin="zoomplus.mouseover" end="zoomplus.mouseout"/>
                        </use>
                        <path d="M-4,0h8M0,-4v8" fill="none" stroke="white" stroke-width="1.5" pointer-events="none"/>
                </g>
                <g id="zoomMin">
                        <use xlink:href="#rim" fill="#404040">
                                <set attributeName="fill" to="#808080" begin="zoomminus.mouseover" end="zoomminus.mouseout"/>
                        </use>
                        <path d="M-4,0h8" fill="none" stroke="white" stroke-width="1.5" pointer-events="none"/>
                </g>
                <g id="dirArrow">
                        <path fill="none" stroke="white" stroke-width="1.5" d="M0,-3.0v7 M-2.5,-0.5L0,-3.0L2.5,-0.5"/>
                </g>
               <g id="resetDef">
                       <use xlink:href="#rim2" fill="#404040">
                               <set attributeName="fill" to="#808080" begin="reset.mouseover" end="reset.mouseout"/>
                       </use>
               </g>
        </defs>

<script type="text/javascript">
var viewWidth = 1626;
var viewHeight = 442;
var sectionId = 'dynsection-0';
</script>
<script xlink:href="svgpan.js"/>
<svg id="graph" class="graph">
<g id="viewport">
<title>Framework/test/testQCTask.cxx</title>
<!-- Node1 -->
<g id="node1" class="node"><title>Node1</title>
<polygon fill="#bfbfbf" stroke="black" points="1241,-414.5 1241,-433.5 1401,-433.5 1401,-414.5 1241,-414.5"/>
<text text-anchor="middle" x="1321" y="-421.5" font-family="Helvetica,sans-Serif" font-size="10.00">Framework/test/testQCTask.cxx</text>
</g>
<!-- Node2 -->
<g id="node2" class="node"><title>Node2</title>
<g id="a_node2"><a xlink:href="TaskFactory_8h.html" target="_top" xlink:title="../include/QualityControl\l/TaskFactory.h">
<polygon fill="none" stroke="black" points="353,-347.5 353,-377.5 475,-377.5 475,-347.5 353,-347.5"/>
<text text-anchor="start" x="361" y="-365.5" font-family="Helvetica,sans-Serif" font-size="10.00">../include/QualityControl</text>
<text text-anchor="middle" x="414" y="-354.5" font-family="Helvetica,sans-Serif" font-size="10.00">/TaskFactory.h</text>
</a>
</g>
</g>
<!-- Node1&#45;&gt;Node2 -->
<g id="edge1" class="edge"><title>Node1&#45;&gt;Node2</title>
<path fill="none" stroke="midnightblue" d="M1240.91,-417.746C1065.89,-406.264 651.689,-379.093 485.158,-368.168"/>
<polygon fill="midnightblue" stroke="midnightblue" points="485.236,-364.666 475.028,-367.503 484.777,-371.651 485.236,-364.666"/>
</g>
<!-- Node3 -->
<g id="node3" class="node"><title>Node3</title>
<polygon fill="none" stroke="#bfbfbf" points="61,-62 61,-81 115,-81 115,-62 61,-62"/>
<text text-anchor="middle" x="88" y="-69" font-family="Helvetica,sans-Serif" font-size="10.00">iostream</text>
</g>
<!-- Node1&#45;&gt;Node3 -->
<g id="edge48" class="edge"><title>Node1&#45;&gt;Node3</title>
<path fill="none" stroke="midnightblue" d="M1240.81,-423.889C1073.4,-424.74 674.803,-421.514 344,-378 188.762,-357.58 0,-458.576 0,-302 0,-302 0,-302 0,-188 0,-144.288 40.3732,-106.802 66.427,-87.1618"/>
<polygon fill="midnightblue" stroke="midnightblue" points="68.5992,-89.91 74.6347,-81.2023 64.4863,-84.2456 68.5992,-89.91"/>
</g>
<!-- Node9 -->
<g id="node9" class="node"><title>Node9</title>
<g id="a_node9"><a xlink:href="TaskInterface_8h.html" target="_top" xlink:title="TaskInterface.h">
<polygon fill="none" stroke="black" points="880.5,-235.5 880.5,-254.5 965.5,-254.5 965.5,-235.5 880.5,-235.5"/>
<text text-anchor="middle" x="923" y="-242.5" font-family="Helvetica,sans-Serif" font-size="10.00">TaskInterface.h</text>
</a>
</g>
</g>
<!-- Node1&#45;&gt;Node9 -->
<g id="edge44" class="edge"><title>Node1&#45;&gt;Node9</title>
<path fill="none" stroke="midnightblue" d="M1301.8,-414.463C1237.46,-385.847 1029.13,-293.197 952.035,-258.913"/>
<polygon fill="midnightblue" stroke="midnightblue" points="953.029,-255.524 942.47,-254.659 950.185,-261.92 953.029,-255.524"/>
</g>
<!-- Node10 -->
<g id="node10" class="node"><title>Node10</title>
<polygon fill="none" stroke="#bfbfbf" points="1315.5,-179.5 1315.5,-198.5 1364.5,-198.5 1364.5,-179.5 1315.5,-179.5"/>
<text text-anchor="middle" x="1340" y="-186.5" font-family="Helvetica,sans-Serif" font-size="10.00">cassert</text>
</g>
<!-- Node1&#45;&gt;Node10 -->
<g id="edge47" class="edge"><title>Node1&#45;&gt;Node10</title>
<path fill="none" stroke="midnightblue" d="M1321.7,-414.431C1324.44,-380.754 1334.54,-256.994 1338.44,-209.102"/>
<polygon fill="midnightblue" stroke="midnightblue" points="1341.95,-209.147 1339.27,-198.896 1334.97,-208.578 1341.95,-209.147"/>
</g>
<!-- Node33 -->
<g id="node33" class="node"><title>Node33</title>
<polygon fill="none" stroke="#bfbfbf" points="1368,-347.5 1368,-377.5 1480,-377.5 1480,-347.5 1368,-347.5"/>
<text text-anchor="start" x="1376" y="-365.5" font-family="Helvetica,sans-Serif" font-size="10.00">boost/test/output_test</text>
<text text-anchor="middle" x="1424" y="-354.5" font-family="Helvetica,sans-Serif" font-size="10.00">_stream.hpp</text>
</g>
<!-- Node1&#45;&gt;Node33 -->
<g id="edge45" class="edge"><title>Node1&#45;&gt;Node33</title>
<path fill="none" stroke="midnightblue" d="M1335.76,-414.475C1350.1,-406.191 1372.37,-393.325 1390.95,-382.591"/>
<polygon fill="midnightblue" stroke="midnightblue" points="1392.82,-385.556 1399.72,-377.523 1389.32,-379.494 1392.82,-385.556"/>
</g>
<!-- Node34 -->
<g id="node34" class="node"><title>Node34</title>
<polygon fill="none" stroke="#bfbfbf" points="1498.5,-353 1498.5,-372 1617.5,-372 1617.5,-353 1498.5,-353"/>
<text text-anchor="middle" x="1558" y="-360" font-family="Helvetica,sans-Serif" font-size="10.00">boost/test/unit_test.hpp</text>
</g>
<!-- Node1&#45;&gt;Node34 -->
<g id="edge46" class="edge"><title>Node1&#45;&gt;Node34</title>
<path fill="none" stroke="midnightblue" d="M1354.96,-414.475C1396.84,-403.959 1468.13,-386.062 1514.13,-374.514"/>
<polygon fill="midnightblue" stroke="midnightblue" points="1515.26,-377.839 1524.11,-372.009 1513.56,-371.049 1515.26,-377.839"/>
</g>
<!-- Node2&#45;&gt;Node3 -->
<g id="edge2" class="edge"><title>Node2&#45;&gt;Node3</title>
<path fill="none" stroke="midnightblue" d="M352.815,-357.798C316.415,-352.455 271.853,-339.933 243,-311 221.747,-289.688 224,-276.098 224,-246 224,-246 224,-246 224,-188 224,-135.058 163.384,-101.326 123.088,-84.7516"/>
<polygon fill="midnightblue" stroke="midnightblue" points="124.167,-81.4148 113.581,-81.0005 121.598,-87.9264 124.167,-81.4148"/>
</g>
<!-- Node4 -->
<g id="node4" class="node"><title>Node4</title>
<polygon fill="none" stroke="#bfbfbf" points="1229,-62 1229,-81 1281,-81 1281,-62 1229,-62"/>
<text text-anchor="middle" x="1255" y="-69" font-family="Helvetica,sans-Serif" font-size="10.00">memory</text>
</g>
<!-- Node2&#45;&gt;Node4 -->
<g id="edge3" class="edge"><title>Node2&#45;&gt;Node4</title>
<path fill="none" stroke="midnightblue" d="M475.118,-359.863C609.969,-353.915 939.906,-326.377 1178,-199 1214.06,-179.711 1231.88,-179.146 1251,-143 1259.4,-127.111 1259.49,-106.296 1258.04,-91.4094"/>
<polygon fill="midnightblue" stroke="midnightblue" points="1261.49,-90.8276 1256.73,-81.3614 1254.55,-91.7288 1261.49,-90.8276"/>
</g>
<!-- Node5 -->
<g id="node5" class="node"><title>Node5</title>
<polygon fill="none" stroke="#bfbfbf" points="252,-291.5 252,-310.5 308,-310.5 308,-291.5 252,-291.5"/>
<text text-anchor="middle" x="280" y="-298.5" font-family="Helvetica,sans-Serif" font-size="10.00">TClass.h</text>
</g>
<!-- Node2&#45;&gt;Node5 -->
<g id="edge4" class="edge"><title>Node2&#45;&gt;Node5</title>
<path fill="none" stroke="midnightblue" d="M382.244,-347.399C359.962,-337.505 330.409,-324.383 308.809,-314.792"/>
<polygon fill="midnightblue" stroke="midnightblue" points="310.058,-311.517 299.498,-310.658 307.217,-317.915 310.058,-311.517"/>
</g>
<!-- Node6 -->
<g id="node6" class="node"><title>Node6</title>
<polygon fill="none" stroke="#bfbfbf" points="326.5,-291.5 326.5,-310.5 385.5,-310.5 385.5,-291.5 326.5,-291.5"/>
<text text-anchor="middle" x="356" y="-298.5" font-family="Helvetica,sans-Serif" font-size="10.00">TROOT.h</text>
</g>
<!-- Node2&#45;&gt;Node6 -->
<g id="edge5" class="edge"><title>Node2&#45;&gt;Node6</title>
<path fill="none" stroke="midnightblue" d="M400.255,-347.399C391.653,-338.575 380.548,-327.183 371.614,-318.018"/>
<polygon fill="midnightblue" stroke="midnightblue" points="373.926,-315.375 364.44,-310.658 368.914,-320.262 373.926,-315.375"/>
</g>
<!-- Node7 -->
<g id="node7" class="node"><title>Node7</title>
<polygon fill="none" stroke="#bfbfbf" points="442.5,-291.5 442.5,-310.5 507.5,-310.5 507.5,-291.5 442.5,-291.5"/>
<text text-anchor="middle" x="475" y="-298.5" font-family="Helvetica,sans-Serif" font-size="10.00">TSystem.h</text>
</g>
<!-- Node2&#45;&gt;Node7 -->
<g id="edge6" class="edge"><title>Node2&#45;&gt;Node7</title>
<path fill="none" stroke="midnightblue" d="M428.456,-347.399C437.594,-338.486 449.419,-326.952 458.862,-317.741"/>
<polygon fill="midnightblue" stroke="midnightblue" points="461.409,-320.146 466.124,-310.658 456.522,-315.135 461.409,-320.146"/>
</g>
<!-- Node8 -->
<g id="node8" class="node"><title>Node8</title>
<g id="a_node8"><a xlink:href="QcInfoLogger_8h.html" target="_top" xlink:title="QualityControl/QcInfoLogger.h">
<polygon fill="none" stroke="black" points="47.5,-291.5 47.5,-310.5 196.5,-310.5 196.5,-291.5 47.5,-291.5"/>
<text text-anchor="middle" x="122" y="-298.5" font-family="Helvetica,sans-Serif" font-size="10.00">QualityControl/QcInfoLogger.h</text>
</a>
</g>
</g>
<!-- Node2&#45;&gt;Node8 -->
<g id="edge7" class="edge"><title>Node2&#45;&gt;Node8</title>
<path fill="none" stroke="midnightblue" d="M352.787,-349.027C299.749,-338.219 223.865,-322.757 173.789,-312.553"/>
<polygon fill="midnightblue" stroke="midnightblue" points="174.321,-309.089 163.823,-310.522 172.923,-315.948 174.321,-309.089"/>
</g>
<!-- Node19 -->
<g id="node19" class="node"><title>Node19</title>
<polygon fill="none" stroke="#bfbfbf" points="184,-62 184,-81 300,-81 300,-62 184,-62"/>
<text text-anchor="middle" x="242" y="-69" font-family="Helvetica,sans-Serif" font-size="10.00">Common/Exceptions.h</text>
</g>
<!-- Node2&#45;&gt;Node19 -->
<g id="edge43" class="edge"><title>Node2&#45;&gt;Node19</title>
<path fill="none" stroke="midnightblue" d="M411.623,-347.419C408.786,-332.766 403.229,-309.429 394,-291 356.944,-217.001 326.263,-212.284 281,-143 269.687,-125.684 258.431,-104.849 250.94,-90.3387"/>
<polygon fill="midnightblue" stroke="midnightblue" points="254.058,-88.7479 246.402,-81.4243 247.82,-91.9239 254.058,-88.7479"/>
</g>
<!-- Node23 -->
<g id="node23" class="node"><title>Node23</title>
<g id="a_node23"><a xlink:href="TaskConfig_8h.html" target="_top" xlink:title="QualityControl/TaskConfig.h">
<polygon fill="none" stroke="black" points="1081,-123.5 1081,-142.5 1221,-142.5 1221,-123.5 1081,-123.5"/>
<text text-anchor="middle" x="1151" y="-130.5" font-family="Helvetica,sans-Serif" font-size="10.00">QualityControl/TaskConfig.h</text>
</a>
</g>
</g>
<!-- Node2&#45;&gt;Node23 -->
<g id="edge42" class="edge"><title>Node2&#45;&gt;Node23</title>
<path fill="none" stroke="midnightblue" d="M475.177,-358.06C580.712,-350.361 802.186,-326.387 974,-255 1038.45,-228.222 1103.44,-175.764 1133.6,-149.605"/>
<polygon fill="midnightblue" stroke="midnightblue" points="1136.28,-151.908 1141.49,-142.677 1131.66,-146.65 1136.28,-151.908"/>
</g>
<!-- Node8&#45;&gt;Node3 -->
<g id="edge41" class="edge"><title>Node8&#45;&gt;Node3</title>
<path fill="none" stroke="midnightblue" d="M100.192,-291.447C85.0551,-284.221 66.0453,-272.264 57,-255 28.2086,-200.05 60.4616,-124.206 78.0702,-90.2192"/>
<polygon fill="midnightblue" stroke="midnightblue" points="81.3283,-91.5502 82.9809,-81.085 75.1629,-88.2354 81.3283,-91.5502"/>
</g>
<!-- Node8&#45;&gt;Node9 -->
<g id="edge8" class="edge"><title>Node8&#45;&gt;Node9</title>
<path fill="none" stroke="midnightblue" d="M196.544,-294.359C211.905,-293.224 227.976,-292.056 243,-291 476.764,-274.572 755.856,-256.627 870.203,-249.347"/>
<polygon fill="midnightblue" stroke="midnightblue" points="870.666,-252.824 880.424,-248.696 870.222,-245.838 870.666,-252.824"/>
</g>
<!-- Node32 -->
<g id="node32" class="node"><title>Node32</title>
<polygon fill="none" stroke="#bfbfbf" points="66,-235.5 66,-254.5 196,-254.5 196,-235.5 66,-235.5"/>
<text text-anchor="middle" x="131" y="-242.5" font-family="Helvetica,sans-Serif" font-size="10.00">InfoLogger/InfoLogger.hxx</text>
</g>
<!-- Node8&#45;&gt;Node32 -->
<g id="edge40" class="edge"><title>Node8&#45;&gt;Node32</title>
<path fill="none" stroke="midnightblue" d="M123.486,-291.083C124.679,-283.927 126.394,-273.635 127.885,-264.691"/>
<polygon fill="midnightblue" stroke="midnightblue" points="131.35,-265.19 129.541,-254.751 124.445,-264.04 131.35,-265.19"/>
</g>
<!-- Node9&#45;&gt;Node4 -->
<g id="edge9" class="edge"><title>Node9&#45;&gt;Node4</title>
<path fill="none" stroke="midnightblue" d="M965.74,-241.553C1031.24,-235.541 1156.57,-214.768 1230,-143 1244.05,-129.268 1250.22,-107.147 1252.93,-91.3459"/>
<polygon fill="midnightblue" stroke="midnightblue" points="1256.43,-91.555 1254.34,-81.1681 1249.5,-90.5907 1256.43,-91.555"/>
</g>
<!-- Node9&#45;&gt;Node10 -->
<g id="edge10" class="edge"><title>Node9&#45;&gt;Node10</title>
<path fill="none" stroke="midnightblue" d="M965.667,-238.475C1048.34,-227.769 1228.89,-204.388 1305.03,-194.528"/>
<polygon fill="midnightblue" stroke="midnightblue" points="1305.59,-197.985 1315.06,-193.23 1304.69,-191.043 1305.59,-197.985"/>
</g>
<!-- Node11 -->
<g id="node11" class="node"><title>Node11</title>
<polygon fill="none" stroke="#bfbfbf" points="379.5,-179.5 379.5,-198.5 504.5,-198.5 504.5,-179.5 379.5,-179.5"/>
<text text-anchor="middle" x="442" y="-186.5" font-family="Helvetica,sans-Serif" font-size="10.00">Framework/InitContext.h</text>
</g>
<!-- Node9&#45;&gt;Node11 -->
<g id="edge11" class="edge"><title>Node9&#45;&gt;Node11</title>
<path fill="none" stroke="midnightblue" d="M880.287,-239.511C807.6,-231.825 654.932,-215.483 514.883,-199.089"/>
<polygon fill="midnightblue" stroke="midnightblue" points="515.162,-195.597 504.822,-197.908 514.346,-202.55 515.162,-195.597"/>
</g>
<!-- Node12 -->
<g id="node12" class="node"><title>Node12</title>
<polygon fill="none" stroke="#bfbfbf" points="523,-179.5 523,-198.5 683,-198.5 683,-179.5 523,-179.5"/>
<text text-anchor="middle" x="603" y="-186.5" font-family="Helvetica,sans-Serif" font-size="10.00">Framework/ProcessingContext.h</text>
</g>
<!-- Node9&#45;&gt;Node12 -->
<g id="edge12" class="edge"><title>Node9&#45;&gt;Node12</title>
<path fill="none" stroke="midnightblue" d="M880.175,-236.773C824.518,-227.381 726.986,-210.923 663.711,-200.245"/>
<polygon fill="midnightblue" stroke="midnightblue" points="663.918,-196.731 653.475,-198.518 662.753,-203.633 663.918,-196.731"/>
</g>
<!-- Node13 -->
<g id="node13" class="node"><title>Node13</title>
<polygon fill="none" stroke="#bfbfbf" points="1037.5,-56.5 1037.5,-86.5 1172.5,-86.5 1172.5,-56.5 1037.5,-56.5"/>
<text text-anchor="start" x="1045.5" y="-74.5" font-family="Helvetica,sans-Serif" font-size="10.00">Configuration/Configuration</text>
<text text-anchor="middle" x="1105" y="-63.5" font-family="Helvetica,sans-Serif" font-size="10.00">Interface.h</text>
</g>
<!-- Node9&#45;&gt;Node13 -->
<g id="edge13" class="edge"><title>Node9&#45;&gt;Node13</title>
<path fill="none" stroke="midnightblue" d="M947.1,-235.417C966.112,-227.842 992.574,-215.445 1012,-199 1030.65,-183.211 1068.8,-127.484 1089.98,-95.5093"/>
<polygon fill="midnightblue" stroke="midnightblue" points="1093.14,-97.0718 1095.72,-86.796 1087.3,-93.2199 1093.14,-97.0718"/>
</g>
<!-- Node14 -->
<g id="node14" class="node"><title>Node14</title>
<g id="a_node14"><a xlink:href="Activity_8h.html" target="_top" xlink:title="QualityControl/Activity.h">
<polygon fill="none" stroke="black" points="701.5,-179.5 701.5,-198.5 824.5,-198.5 824.5,-179.5 701.5,-179.5"/>
<text text-anchor="middle" x="763" y="-186.5" font-family="Helvetica,sans-Serif" font-size="10.00">QualityControl/Activity.h</text>
</a>
</g>
</g>
<!-- Node9&#45;&gt;Node14 -->
<g id="edge14" class="edge"><title>Node9&#45;&gt;Node14</title>
<path fill="none" stroke="midnightblue" d="M897.648,-235.444C870.731,-226.359 828.004,-211.939 797.913,-201.783"/>
<polygon fill="midnightblue" stroke="midnightblue" points="798.828,-198.398 788.234,-198.516 796.59,-205.031 798.828,-198.398"/>
</g>
<!-- Node15 -->
<g id="node15" class="node"><title>Node15</title>
<g id="a_node15"><a xlink:href="ObjectsManager_8h.html" target="_top" xlink:title="QualityControl/ObjectsManager.h">
<polygon fill="none" stroke="black" points="842.5,-179.5 842.5,-198.5 1003.5,-198.5 1003.5,-179.5 842.5,-179.5"/>
<text text-anchor="middle" x="923" y="-186.5" font-family="Helvetica,sans-Serif" font-size="10.00">QualityControl/ObjectsManager.h</text>
</a>
</g>
</g>
<!-- Node9&#45;&gt;Node15 -->
<g id="edge15" class="edge"><title>Node9&#45;&gt;Node15</title>
<path fill="none" stroke="midnightblue" d="M923,-235.083C923,-228.006 923,-217.861 923,-208.986"/>
<polygon fill="midnightblue" stroke="midnightblue" points="926.5,-208.751 923,-198.751 919.5,-208.751 926.5,-208.751"/>
</g>
<!-- Node16 -->
<g id="node16" class="node"><title>Node16</title>
<g id="a_node16"><a xlink:href="MonitorObject_8h.html" target="_top" xlink:title="QualityControl/MonitorObject.h">
<polygon fill="none" stroke="black" points="290.5,-123.5 290.5,-142.5 441.5,-142.5 441.5,-123.5 290.5,-123.5"/>
<text text-anchor="middle" x="366" y="-130.5" font-family="Helvetica,sans-Serif" font-size="10.00">QualityControl/MonitorObject.h</text>
</a>
</g>
</g>
<!-- Node15&#45;&gt;Node16 -->
<g id="edge16" class="edge"><title>Node15&#45;&gt;Node16</title>
<path fill="none" stroke="midnightblue" d="M842.049,-179.888C838.994,-179.587 835.969,-179.29 833,-179 665.481,-162.626 623.519,-159.374 456,-143 454.681,-142.871 453.352,-142.741 452.014,-142.61"/>
<polygon fill="midnightblue" stroke="midnightblue" points="451.914,-139.083 441.62,-141.587 451.229,-146.049 451.914,-139.083"/>
</g>
<!-- Node20 -->
<g id="node20" class="node"><title>Node20</title>
<g id="a_node20"><a xlink:href="Quality_8h.html" target="_top" xlink:title="QualityControl/Quality.h">
<polygon fill="none" stroke="black" points="409.5,-62 409.5,-81 530.5,-81 530.5,-62 409.5,-62"/>
<text text-anchor="middle" x="470" y="-69" font-family="Helvetica,sans-Serif" font-size="10.00">QualityControl/Quality.h</text>
</a>
</g>
</g>
<!-- Node15&#45;&gt;Node20 -->
<g id="edge25" class="edge"><title>Node15&#45;&gt;Node20</title>
<path fill="none" stroke="midnightblue" d="M842.389,-179.805C716.859,-167.024 488.833,-143.719 488,-143 473.378,-130.382 469.801,-107.69 469.292,-91.4569"/>
<polygon fill="midnightblue" stroke="midnightblue" points="472.794,-91.034 469.349,-81.015 465.794,-90.9956 472.794,-91.034"/>
</g>
<!-- Node22 -->
<g id="node22" class="node"><title>Node22</title>
<polygon fill="none" stroke="#bfbfbf" points="943.5,-0.5 943.5,-19.5 984.5,-19.5 984.5,-0.5 943.5,-0.5"/>
<text text-anchor="middle" x="964" y="-7.5" font-family="Helvetica,sans-Serif" font-size="10.00">string</text>
</g>
<!-- Node15&#45;&gt;Node22 -->
<g id="edge39" class="edge"><title>Node15&#45;&gt;Node22</title>
<path fill="none" stroke="midnightblue" d="M949.211,-179.414C965.85,-172.445 986.057,-160.809 996,-143 1016.99,-105.409 991.762,-54.2959 975.566,-28.0691"/>
<polygon fill="midnightblue" stroke="midnightblue" points="978.469,-26.1131 970.11,-19.6037 972.585,-29.9053 978.469,-26.1131"/>
</g>
<!-- Node15&#45;&gt;Node23 -->
<g id="edge26" class="edge"><title>Node15&#45;&gt;Node23</title>
<path fill="none" stroke="midnightblue" d="M959.127,-179.444C998.651,-170.083 1062.1,-155.056 1105.11,-144.868"/>
<polygon fill="midnightblue" stroke="midnightblue" points="1106.12,-148.227 1115.04,-142.516 1104.5,-141.415 1106.12,-148.227"/>
</g>
<!-- Node24 -->
<g id="node24" class="node"><title>Node24</title>
<g id="a_node24"><a xlink:href="ServiceDiscovery_8h_source.html" target="_top" xlink:title="QualityControl/ServiceDiscovery.h">
<polygon fill="none" stroke="black" points="497.5,-123.5 497.5,-142.5 664.5,-142.5 664.5,-123.5 497.5,-123.5"/>
<text text-anchor="middle" x="581" y="-130.5" font-family="Helvetica,sans-Serif" font-size="10.00">QualityControl/ServiceDiscovery.h</text>
</a>
</g>
</g>
<!-- Node15&#45;&gt;Node24 -->
<g id="edge29" class="edge"><title>Node15&#45;&gt;Node24</title>
<path fill="none" stroke="midnightblue" d="M868.809,-179.444C808.022,-169.846 709.513,-154.292 644.99,-144.104"/>
<polygon fill="midnightblue" stroke="midnightblue" points="645.361,-140.619 634.937,-142.516 644.269,-147.533 645.361,-140.619"/>
</g>
<!-- Node29 -->
<g id="node29" class="node"><title>Node29</title>
<polygon fill="none" stroke="#bfbfbf" points="682.5,-123.5 682.5,-142.5 751.5,-142.5 751.5,-123.5 682.5,-123.5"/>
<text text-anchor="middle" x="717" y="-130.5" font-family="Helvetica,sans-Serif" font-size="10.00">TObjArray.h</text>
</g>
<!-- Node15&#45;&gt;Node29 -->
<g id="edge36" class="edge"><title>Node15&#45;&gt;Node29</title>
<path fill="none" stroke="midnightblue" d="M890.359,-179.444C854.95,-170.162 798.291,-155.309 759.447,-145.127"/>
<polygon fill="midnightblue" stroke="midnightblue" points="760.049,-141.667 749.489,-142.516 758.274,-148.438 760.049,-141.667"/>
</g>
<!-- Node30 -->
<g id="node30" class="node"><title>Node30</title>
<polygon fill="none" stroke="#bfbfbf" points="769.5,-123.5 769.5,-142.5 840.5,-142.5 840.5,-123.5 769.5,-123.5"/>
<text text-anchor="middle" x="805" y="-130.5" font-family="Helvetica,sans-Serif" font-size="10.00">TObjString.h</text>
</g>
<!-- Node15&#45;&gt;Node30 -->
<g id="edge37" class="edge"><title>Node15&#45;&gt;Node30</title>
<path fill="none" stroke="midnightblue" d="M904.303,-179.444C885.056,-170.636 854.848,-156.812 832.8,-146.722"/>
<polygon fill="midnightblue" stroke="midnightblue" points="834.16,-143.495 823.61,-142.516 831.247,-149.86 834.16,-143.495"/>
</g>
<!-- Node31 -->
<g id="node31" class="node"><title>Node31</title>
<polygon fill="none" stroke="#bfbfbf" points="859,-123.5 859,-142.5 987,-142.5 987,-123.5 859,-123.5"/>
<text text-anchor="middle" x="923" y="-130.5" font-family="Helvetica,sans-Serif" font-size="10.00">boost/concept_check.hpp</text>
</g>
<!-- Node15&#45;&gt;Node31 -->
<g id="edge38" class="edge"><title>Node15&#45;&gt;Node31</title>
<path fill="none" stroke="midnightblue" d="M923,-179.083C923,-172.006 923,-161.861 923,-152.986"/>
<polygon fill="midnightblue" stroke="midnightblue" points="926.5,-152.751 923,-142.751 919.5,-152.751 926.5,-152.751"/>
</g>
<!-- Node16&#45;&gt;Node3 -->
<g id="edge17" class="edge"><title>Node16&#45;&gt;Node3</title>
<path fill="none" stroke="midnightblue" d="M326.169,-123.475C272.402,-111.967 177.327,-91.6186 125.037,-80.4269"/>
<polygon fill="midnightblue" stroke="midnightblue" points="125.685,-76.9865 115.174,-78.316 124.22,-83.8315 125.685,-76.9865"/>
</g>
<!-- Node17 -->
<g id="node17" class="node"><title>Node17</title>
<polygon fill="none" stroke="#bfbfbf" points="356.5,-62 356.5,-81 391.5,-81 391.5,-62 356.5,-62"/>
<text text-anchor="middle" x="374" y="-69" font-family="Helvetica,sans-Serif" font-size="10.00">map</text>
</g>
<!-- Node16&#45;&gt;Node17 -->
<g id="edge18" class="edge"><title>Node16&#45;&gt;Node17</title>
<path fill="none" stroke="midnightblue" d="M367.146,-123.475C368.275,-115.08 370.036,-101.981 371.491,-91.1631"/>
<polygon fill="midnightblue" stroke="midnightblue" points="374.992,-91.3863 372.856,-81.0091 368.055,-90.4535 374.992,-91.3863"/>
</g>
<!-- Node18 -->
<g id="node18" class="node"><title>Node18</title>
<polygon fill="none" stroke="#bfbfbf" points="332.5,-0.5 332.5,-19.5 391.5,-19.5 391.5,-0.5 332.5,-0.5"/>
<text text-anchor="middle" x="362" y="-7.5" font-family="Helvetica,sans-Serif" font-size="10.00">TObject.h</text>
</g>
<!-- Node16&#45;&gt;Node18 -->
<g id="edge19" class="edge"><title>Node16&#45;&gt;Node18</title>
<path fill="none" stroke="midnightblue" d="M361.124,-123.372C356.441,-114.552 349.692,-100.299 347,-87 344.266,-73.4962 344.793,-69.5999 347,-56 348.468,-46.9568 351.492,-37.275 354.444,-29.2176"/>
<polygon fill="midnightblue" stroke="midnightblue" points="357.763,-30.3393 358.144,-19.7514 351.244,-27.7907 357.763,-30.3393"/>
</g>
<!-- Node16&#45;&gt;Node19 -->
<g id="edge20" class="edge"><title>Node16&#45;&gt;Node19</title>
<path fill="none" stroke="midnightblue" d="M348.234,-123.475C327.516,-113.534 293.048,-96.9947 269.011,-85.461"/>
<polygon fill="midnightblue" stroke="midnightblue" points="270.263,-82.1797 259.733,-81.0091 267.235,-88.4908 270.263,-82.1797"/>
</g>
<!-- Node16&#45;&gt;Node20 -->
<g id="edge21" class="edge"><title>Node16&#45;&gt;Node20</title>
<path fill="none" stroke="midnightblue" d="M380.901,-123.475C397.968,-113.711 426.161,-97.5807 446.262,-86.0808"/>
<polygon fill="midnightblue" stroke="midnightblue" points="448.185,-89.013 455.127,-81.0091 444.709,-82.9371 448.185,-89.013"/>
</g>
<!-- Node20&#45;&gt;Node18 -->
<g id="edge22" class="edge"><title>Node20&#45;&gt;Node18</title>
<path fill="none" stroke="midnightblue" d="M454.526,-61.9751C436.722,-52.1664 407.259,-35.9346 386.368,-24.425"/>
<polygon fill="midnightblue" stroke="midnightblue" points="387.893,-21.269 377.445,-19.5091 384.515,-27.4001 387.893,-21.269"/>
</g>
<!-- Node21 -->
<g id="node21" class="node"><title>Node21</title>
<polygon fill="none" stroke="#bfbfbf" points="444,-0.5 444,-19.5 496,-19.5 496,-0.5 444,-0.5"/>
<text text-anchor="middle" x="470" y="-7.5" font-family="Helvetica,sans-Serif" font-size="10.00">ostream</text>
</g>
<!-- Node20&#45;&gt;Node21 -->
<g id="edge23" class="edge"><title>Node20&#45;&gt;Node21</title>
<path fill="none" stroke="midnightblue" d="M470,-61.9751C470,-53.5803 470,-40.4806 470,-29.6631"/>
<polygon fill="midnightblue" stroke="midnightblue" points="473.5,-29.5091 470,-19.5091 466.5,-29.5091 473.5,-29.5091"/>
</g>
<!-- Node20&#45;&gt;Node22 -->
<g id="edge24" class="edge"><title>Node20&#45;&gt;Node22</title>
<path fill="none" stroke="midnightblue" d="M507.658,-61.9895C518.095,-59.8247 529.455,-57.6477 540,-56 686.136,-33.1665 862.45,-18.5627 932.808,-13.252"/>
<polygon fill="midnightblue" stroke="midnightblue" points="933.457,-16.7134 943.169,-12.4796 932.937,-9.73277 933.457,-16.7134"/>
</g>
<!-- Node23&#45;&gt;Node13 -->
<g id="edge28" class="edge"><title>Node23&#45;&gt;Node13</title>
<path fill="none" stroke="midnightblue" d="M1144.41,-123.475C1138.59,-115.944 1129.84,-104.626 1122.06,-94.5663"/>
<polygon fill="midnightblue" stroke="midnightblue" points="1124.73,-92.2936 1115.84,-86.523 1119.19,-96.5751 1124.73,-92.2936"/>
</g>
<!-- Node23&#45;&gt;Node22 -->
<g id="edge27" class="edge"><title>Node23&#45;&gt;Node22</title>
<path fill="none" stroke="midnightblue" d="M1159.79,-123.14C1173.76,-107.975 1197.83,-76.6834 1181,-56 1157.83,-27.5349 1048.68,-16.5042 994.565,-12.7314"/>
<polygon fill="midnightblue" stroke="midnightblue" points="994.726,-9.2345 984.518,-12.0705 994.267,-16.2194 994.726,-9.2345"/>
</g>
<!-- Node24&#45;&gt;Node4 -->
<g id="edge32" class="edge"><title>Node24&#45;&gt;Node4</title>
<path fill="none" stroke="midnightblue" d="M664.728,-123.713C667.518,-123.468 670.281,-123.229 673,-123 898.543,-103.98 956.629,-116.818 1181,-87 1193.35,-85.3593 1206.73,-82.9356 1218.69,-80.5375"/>
<polygon fill="midnightblue" stroke="midnightblue" points="1219.67,-83.9077 1228.76,-78.4569 1218.26,-77.0525 1219.67,-83.9077"/>
</g>
<!-- Node24&#45;&gt;Node22 -->
<g id="edge33" class="edge"><title>Node24&#45;&gt;Node22</title>
<path fill="none" stroke="midnightblue" d="M656.47,-123.497C725.072,-115.073 820.786,-101.38 856,-87 891.845,-72.362 927.396,-43.9642 947.442,-26.3302"/>
<polygon fill="midnightblue" stroke="midnightblue" points="949.941,-28.7904 955.04,-19.5033 945.262,-23.5836 949.941,-28.7904"/>
</g>
<!-- Node25 -->
<g id="node25" class="node"><title>Node25</title>
<polygon fill="none" stroke="#bfbfbf" points="549,-62 549,-81 595,-81 595,-62 549,-62"/>
<text text-anchor="middle" x="572" y="-69" font-family="Helvetica,sans-Serif" font-size="10.00">atomic</text>
</g>
<!-- Node24&#45;&gt;Node25 -->
<g id="edge30" class="edge"><title>Node24&#45;&gt;Node25</title>
<path fill="none" stroke="midnightblue" d="M579.711,-123.475C578.441,-115.08 576.459,-101.981 574.823,-91.1631"/>
<polygon fill="midnightblue" stroke="midnightblue" points="578.243,-90.3731 573.287,-81.0091 571.322,-91.4201 578.243,-90.3731"/>
</g>
<!-- Node26 -->
<g id="node26" class="node"><title>Node26</title>
<polygon fill="none" stroke="#bfbfbf" points="613.5,-62 613.5,-81 672.5,-81 672.5,-62 613.5,-62"/>
<text text-anchor="middle" x="643" y="-69" font-family="Helvetica,sans-Serif" font-size="10.00">curl/curl.h</text>
</g>
<!-- Node24&#45;&gt;Node26 -->
<g id="edge31" class="edge"><title>Node24&#45;&gt;Node26</title>
<path fill="none" stroke="midnightblue" d="M589.883,-123.475C599.459,-114.285 614.911,-99.4563 626.686,-88.156"/>
<polygon fill="midnightblue" stroke="midnightblue" points="629.342,-90.4585 634.133,-81.0091 624.495,-85.408 629.342,-90.4585"/>
</g>
<!-- Node27 -->
<g id="node27" class="node"><title>Node27</title>
<polygon fill="none" stroke="#bfbfbf" points="691,-62 691,-81 735,-81 735,-62 691,-62"/>
<text text-anchor="middle" x="713" y="-69" font-family="Helvetica,sans-Serif" font-size="10.00">thread</text>
</g>
<!-- Node24&#45;&gt;Node27 -->
<g id="edge34" class="edge"><title>Node24&#45;&gt;Node27</title>
<path fill="none" stroke="midnightblue" d="M600.177,-123.388C620.313,-114.342 652.891,-99.6927 681,-87 682.188,-86.4635 683.401,-85.9154 684.626,-85.3616"/>
<polygon fill="midnightblue" stroke="midnightblue" points="686.385,-88.4074 694.052,-81.0955 683.499,-82.0301 686.385,-88.4074"/>
</g>
<!-- Node28 -->
<g id="node28" class="node"><title>Node28</title>
<polygon fill="none" stroke="#bfbfbf" points="753,-56.5 753,-86.5 847,-86.5 847,-56.5 753,-56.5"/>
<text text-anchor="start" x="761" y="-74.5" font-family="Helvetica,sans-Serif" font-size="10.00">boost/asio/ip/host</text>
<text text-anchor="middle" x="800" y="-63.5" font-family="Helvetica,sans-Serif" font-size="10.00">_name.hpp</text>
</g>
<!-- Node24&#45;&gt;Node28 -->
<g id="edge35" class="edge"><title>Node24&#45;&gt;Node28</title>
<path fill="none" stroke="midnightblue" d="M612.377,-123.475C646.43,-114.223 701.516,-99.2572 743.21,-87.9292"/>
<polygon fill="midnightblue" stroke="midnightblue" points="744.23,-91.2791 752.962,-85.2797 742.394,-84.524 744.23,-91.2791"/>
</g>
</g>
</svg>
        <g id="navigator" transform="translate(0 0)" fill="#404254">
                <rect fill="#f2f5e9" fill-opacity="0.5" stroke="#606060" stroke-width=".5" x="0" y="0" width="60" height="60"/>
                <use id="zoomplus" xlink:href="#zoomPlus" x="17" y="9" onmousedown="handleZoom(evt,'in')"/>
                <use id="zoomminus" xlink:href="#zoomMin" x="42" y="9" onmousedown="handleZoom(evt,'out')"/>
                <use id="reset" xlink:href="#resetDef" x="30" y="36" onmousedown="handleReset()"/>
                <g id="arrowUp" xlink:href="#dirArrow" transform="translate(30 24)" onmousedown="handlePan(0,-1)">
                  <use xlink:href="#rim" fill="#404040">
                        <set attributeName="fill" to="#808080" begin="arrowUp.mouseover" end="arrowUp.mouseout"/>
                  </use>
                  <path fill="none" stroke="white" stroke-width="1.5" d="M0,-3.0v7 M-2.5,-0.5L0,-3.0L2.5,-0.5"/>
                </g>
                <g id="arrowRight" xlink:href="#dirArrow" transform="rotate(90) translate(36 -43)" onmousedown="handlePan(1,0)">
                  <use xlink:href="#rim" fill="#404040">
                        <set attributeName="fill" to="#808080" begin="arrowRight.mouseover" end="arrowRight.mouseout"/>
                  </use>
                  <path fill="none" stroke="white" stroke-width="1.5" d="M0,-3.0v7 M-2.5,-0.5L0,-3.0L2.5,-0.5"/>
                </g>
                <g id="arrowDown" xlink:href="#dirArrow" transform="rotate(180) translate(-30 -48)" onmousedown="handlePan(0,1)">
                  <use xlink:href="#rim" fill="#404040">
                        <set attributeName="fill" to="#808080" begin="arrowDown.mouseover" end="arrowDown.mouseout"/>
                  </use>
                  <path fill="none" stroke="white" stroke-width="1.5" d="M0,-3.0v7 M-2.5,-0.5L0,-3.0L2.5,-0.5"/>
                </g>
                <g id="arrowLeft" xlink:href="#dirArrow" transform="rotate(270) translate(-36 17)" onmousedown="handlePan(-1,0)">
                  <use xlink:href="#rim" fill="#404040">
                        <set attributeName="fill" to="#808080" begin="arrowLeft.mouseover" end="arrowLeft.mouseout"/>
                  </use>
                  <path fill="none" stroke="white" stroke-width="1.5" d="M0,-3.0v7 M-2.5,-0.5L0,-3.0L2.5,-0.5"/>
                </g>
        </g>
        <svg viewBox="0 0 15 15" width="100%" height="30px" preserveAspectRatio="xMaxYMin meet">
         <g id="arrow_out" transform="scale(0.3 0.3)">
          <a xlink:href="testQCTask_8cxx__incl_org.svg" target="_base">
           <rect id="button" ry="5" rx="5" y="6" x="6" height="38" width="38"
                fill="#f2f5e9" fill-opacity="0.5" stroke="#606060" stroke-width="1.0"/>
           <path id="arrow"
             d="M 11.500037,31.436501 C 11.940474,20.09759 22.043105,11.32322 32.158766,21.979434 L 37.068811,17.246167 C 37.068811,17.246167 37.088388,32 37.088388,32 L 22.160133,31.978069 C 22.160133,31.978069 26.997745,27.140456 26.997745,27.140456 C 18.528582,18.264221 13.291696,25.230495 11.500037,31.436501 z"
             style="fill:#404040;"/>
          </a>
         </g>
        </svg>
</svg>
